<svg xmlns="http://www.w3.org/2000/svg" id="payment" width="30" height="30" viewBox="0 0 30 30">
    <defs>
        <style>
            .cls-1{fill:#2f2f2f}
        </style>
    </defs>
    <g id="Group_9435">
        <g id="Group_9434">
            <path id="Path_8167" d="M25.313 0H4.688A4.8 4.8 0 0 0 0 4.9v13.232a4.8 4.8 0 0 0 4.688 4.9h9.844a1.226 1.226 0 0 0 0-2.45H4.688a2.4 2.4 0 0 1-2.344-2.45V4.9a2.4 2.4 0 0 1 2.344-2.45h20.625a2.4 2.4 0 0 1 2.343 2.45v9.862a1.173 1.173 0 1 0 2.344 0V4.9A4.8 4.8 0 0 0 25.313 0z" class="cls-1"/>
            <circle id="Ellipse_547" cx="1" cy="1" r="1" class="cls-1" transform="translate(4.693 9.512)"/>
            <path id="Path_8168" d="M312.4 270.875v-.839a3.075 3.075 0 0 0-6.148 0v.839a2.565 2.565 0 0 0-2.252 2.543v5.123a1.025 1.025 0 0 0 1.025 1.025h8.607a1.025 1.025 0 0 0 1.025-1.025v-5.123a2.565 2.565 0 0 0-2.257-2.543zm-4.1-.839a1.026 1.026 0 0 1 2.049 0v.82H308.3zm4.3 7.48h-6.558v-4.1a.513.513 0 0 1 .512-.512h5.546a.513.513 0 0 1 .512.512z" class="cls-1" transform="translate(-284.657 -249.566)"/>
            <path id="Path_8169" d="M165.349 85.411a5.186 5.186 0 1 0-5.175 5.533 5.369 5.369 0 0 0 5.175-5.533zm-5.174 3.489a3.5 3.5 0 1 1 3.125-3.484 3.323 3.323 0 0 1-3.125 3.484z" class="cls-1" transform="translate(-145.175 -74.769)"/>
            <circle id="Ellipse_548" cx="1" cy="1" r="1" class="cls-1" transform="translate(22.756 9.512)"/>
        </g>
    </g>
</svg>
