<svg xmlns="http://www.w3.org/2000/svg" width="30.016" height="30.016" viewBox="0 0 30.016 30.016">
    <path fill="#2f2f2f" d="M7.972 13.894a7.035 7.035 0 1 0 7.035-7.035 7.043 7.043 0 0 0-7.035 7.035zM15.007 9.2a4.66 4.66 0 0 1 2.276.591l-6.375 6.379a4.687 4.687 0 0 1 4.1-6.966zm0 9.38a4.661 4.661 0 0 1-2.482-.714l6.459-6.459a4.687 4.687 0 0 1-3.976 7.173zm15.008-4.749a13.019 13.019 0 0 1-2.38 7.481 1.172 1.172 0 0 1-1.923-1.342 10.685 10.685 0 0 0 1.958-6.139c0-6.336-5.681-11.49-12.663-11.49S2.344 7.5 2.344 13.835a10.719 10.719 0 0 0 2.641 7.022 1.172 1.172 0 0 1 .195 1.2l-1.839 4.549L8.7 24.245a1.173 1.173 0 0 1 .933-.005 13.833 13.833 0 0 0 11.55-.369 1.173 1.173 0 1 1 1.062 2.091 16.188 16.188 0 0 1-13.054.63l-7.547 3.324A1.173 1.173 0 0 1 .084 28.4l2.662-6.585A12.967 12.967 0 0 1 0 13.835a13.224 13.224 0 0 1 4.432-9.819A15.585 15.585 0 0 1 15.007 0a15.586 15.586 0 0 1 10.575 4.016 13.225 13.225 0 0 1 4.433 9.819zm0 0" transform="translate(.001)"/>
</svg>
