<svg xmlns="http://www.w3.org/2000/svg" id="prefix__branches_ic_20px" width="20" height="20" viewBox="0 0 20 20">
    <path id="prefix__boundaries" d="M0 0H20V20H0z" style="fill:none"/>
    <path id="prefix__store" d="M19.937 5.966L18.2 1.9A3.121 3.121 0 0 0 15.327 0H4.673A3.121 3.121 0 0 0 1.8 1.9L.063 5.966A.782.782 0 0 0 0 6.273v1.016a2.62 2.62 0 0 0 1.563 2.394v7.192A3.128 3.128 0 0 0 4.688 20h2.968a.781.781 0 0 0 .781-.781v-6.211h3.125v6.211a.781.781 0 0 0 .781.781h2.969a3.128 3.128 0 0 0 3.125-3.125v-.781a.781.781 0 0 0-.781-.781h-4.531v-3.086a.781.781 0 0 0-.781-.781H7.656a.781.781 0 0 0-.781.781v3.086h-3.75V9.856a2.613 2.613 0 0 0 1.328-.7 2.612 2.612 0 0 0 3.684-.011 2.651 2.651 0 0 0 3.727 0 2.612 2.612 0 0 0 3.684.011 2.613 2.613 0 0 0 1.328.7v2.331a.781.781 0 0 0 1.563 0v-2.5A2.621 2.621 0 0 0 20 7.289V6.273a.782.782 0 0 0-.063-.307zm-6.812 10.909h3.75a1.564 1.564 0 0 1-1.562 1.563h-2.188zM3.236 2.512a1.561 1.561 0 0 1 1.437-.949h10.654a1.561 1.561 0 0 1 1.437.949l1.262 2.957H1.974zm3.639 14.363v1.563H4.688a1.564 1.564 0 0 1-1.562-1.562zM2.617 8.344a1.056 1.056 0 0 1-1.054-1.055v-.258h2.109v.258a1.056 1.056 0 0 1-1.055 1.055zm4.727-1.055a1.055 1.055 0 0 1-2.109 0v-.258h2.109zM10 8.344A1.1 1.1 0 0 1 8.906 7.25v-.219h2.188v.219A1.1 1.1 0 0 1 10 8.344zm3.711 0a1.056 1.056 0 0 1-1.055-1.055v-.258h2.109v.258a1.056 1.056 0 0 1-1.054 1.055zm3.672 0a1.056 1.056 0 0 1-1.055-1.055v-.258h2.109v.258a1.056 1.056 0 0 1-1.054 1.055zm0 0" style="fill:#2f2f2f"/>
</svg>
