<svg xmlns="http://www.w3.org/2000/svg" width="30" height="30" viewBox="0 0 30 30">
    <defs>
        <clipPath id="clip-path">
            <path id="Rectangle_2178" fill="#7dc356" stroke="#707070" d="M0 0H30V30H0z" transform="translate(6853 399)"/>
        </clipPath>
        <style>
            .cls-3{fill:#7dc356}
        </style>
    </defs>
    <g id="Mask_Group_83" clip-path="url(#clip-path)" transform="translate(-6853 -399)">
        <g id="map" transform="translate(6855.974 402)">
            <g id="Group_9637" transform="translate(.026)">
                <g id="Group_9636">
                    <path id="Path_8223" d="M241.582 15.786a.952.952 0 0 0 .8.443h.364a.952.952 0 0 0 .8-.443 20.462 20.462 0 0 1 2.267-2.8c1.627-1.782 3.31-3.625 3.313-6.428a6.567 6.567 0 0 0-13.133 0c0 2.8 1.685 4.644 3.313 6.426a20.463 20.463 0 0 1 2.276 2.802zm.987-13.886a4.669 4.669 0 0 1 4.663 4.656c0 2.064-1.306 3.491-2.815 5.144-.623.682-1.261 1.381-1.848 2.165-.587-.784-1.226-1.483-1.848-2.165-1.509-1.653-2.813-3.08-2.815-5.142a4.67 4.67 0 0 1 4.663-4.658z" class="cls-3" transform="translate(-224.772)"/>
                    <path id="Path_8224" d="M316.8 84.622a.952.952 0 0 0-.952-.952.952.952 0 1 1 .952-.952.952.952 0 1 0 1.9 0 2.855 2.855 0 1 0-2.855 2.855.952.952 0 0 0 .955-.951z" class="cls-3" transform="translate(-298.1 -76.063)"/>
                    <path id="Path_8225" d="M23.437 13.619a.952.952 0 0 0-.952.952v6.969a.967.967 0 0 1-.429.808.924.924 0 0 1-.868.1l-.047-.017-3.591-1.184a5.223 5.223 0 0 0-3.137-.157l-4.98 1.299a4.036 4.036 0 0 1-1.981.01l-4.078-1.013a1.9 1.9 0 0 1-1.445-1.847V2.913a.952.952 0 0 1 1.3-.885l.045.016 3.553 1.2a5.244 5.244 0 0 0 2.846.247.952.952 0 1 0-.358-1.869 3.342 3.342 0 0 1-1.824-.162l-.036-.013L3.905.248A2.855 2.855 0 0 0 .026 2.913v16.626a3.8 3.8 0 0 0 2.889 3.694l4.077 1.013a5.945 5.945 0 0 0 2.918-.015l4.982-1.293a3.329 3.329 0 0 1 2.011.1l.035.012 3.586 1.183a2.839 2.839 0 0 0 2.606-.318 2.883 2.883 0 0 0 1.257-2.379v-6.965a.952.952 0 0 0-.95-.952z" class="cls-3" transform="translate(-.026 -.055)"/>
                    <path id="Path_8226" d="M157.962 184.045a.952.952 0 1 0 .952.952.951.951 0 0 0-.952-.952z" class="cls-3" transform="translate(-149.539 -175.286)"/>
                    <path id="Path_8227" d="M157.962 256.038a.952.952 0 1 0 .952.952.951.951 0 0 0-.952-.952z" class="cls-3" transform="translate(-149.539 -243.853)"/>
                    <path id="Path_8228" d="M157.962 328.031a.952.952 0 1 0 .952.952.951.951 0 0 0-.952-.952z" class="cls-3" transform="translate(-149.539 -312.42)"/>
                    <path id="Path_8229" d="M157.962 112.053a.952.952 0 1 0 .952.952.951.951 0 0 0-.952-.952z" class="cls-3" transform="translate(-149.539 -106.721)"/>
                    <path id="Path_8230" d="M157.962 400.023a.952.952 0 1 0 .952.952.951.951 0 0 0-.952-.952z" class="cls-3" transform="translate(-149.539 -380.986)"/>
                </g>
            </g>
        </g>
    </g>
</svg>
