<svg xmlns="http://www.w3.org/2000/svg" id="prefix__branches_ic_30px_inactive" width="30" height="30" viewBox="0 0 30 30">
    <path id="prefix__boundaries" d="M0 0H30V30H0z" style="fill:none"/>
    <path id="prefix__store" d="M29.906 8.95l-2.6-6.1A4.681 4.681 0 0 0 22.99 0H7.01A4.681 4.681 0 0 0 2.7 2.848l-2.6 6.1a1.173 1.173 0 0 0-.1.462v1.523a3.93 3.93 0 0 0 2.344 3.592v10.788A4.693 4.693 0 0 0 7.031 30h4.453a1.172 1.172 0 0 0 1.172-1.172v-9.316h4.688v9.316A1.172 1.172 0 0 0 18.516 30h4.453a4.693 4.693 0 0 0 4.688-4.687v-1.172a1.172 1.172 0 0 0-1.172-1.172h-6.8V18.34a1.172 1.172 0 0 0-1.172-1.172h-7.029a1.172 1.172 0 0 0-1.172 1.172v4.629H4.688v-8.185a3.919 3.919 0 0 0 1.992-1.056 3.918 3.918 0 0 0 5.525-.017 3.976 3.976 0 0 0 5.59 0 3.918 3.918 0 0 0 5.525.017 3.919 3.919 0 0 0 1.992 1.057v3.5a1.172 1.172 0 0 0 2.344 0v-3.76A3.931 3.931 0 0 0 30 10.933V9.41a1.173 1.173 0 0 0-.094-.46zM19.688 25.313h5.625a2.347 2.347 0 0 1-2.344 2.344h-3.281zM4.854 3.768A2.341 2.341 0 0 1 7.01 2.344h15.98a2.341 2.341 0 0 1 2.156 1.424L27.039 8.2H2.961zm5.459 21.545v2.344H7.031a2.347 2.347 0 0 1-2.344-2.344zm-6.387-12.8a1.584 1.584 0 0 1-1.582-1.582v-.386h3.164v.386a1.584 1.584 0 0 1-1.582 1.584zm7.09-1.582a1.582 1.582 0 0 1-3.164 0v-.386h3.164zM15 12.515a1.643 1.643 0 0 1-1.641-1.641v-.328h3.281v.328A1.642 1.642 0 0 1 15 12.515zm5.566 0a1.584 1.584 0 0 1-1.582-1.582v-.386h3.164v.386a1.584 1.584 0 0 1-1.582 1.582zm5.508 0a1.584 1.584 0 0 1-1.582-1.582v-.386h3.164v.386a1.584 1.584 0 0 1-1.582 1.582zm0 0" style="fill:#7dc356"/>
</svg>
