<svg xmlns="http://www.w3.org/2000/svg" width="30" height="30" viewBox="0 0 30 30">
    <path fill="#7dc356" d="M13.893 21.445v-5.274H8.619a1.172 1.172 0 1 1 0-2.344h5.273V8.5a1.172 1.172 0 0 1 2.344 0v5.331h5.274a1.172 1.172 0 1 1 0 2.344h-5.274v5.274a1.172 1.172 0 0 1-2.344 0zm14.935-.879A1.172 1.172 0 0 0 30 19.395V4.688A4.693 4.693 0 0 0 25.313 0H4.688A4.693 4.693 0 0 0 0 4.688v20.625A4.693 4.693 0 0 0 4.688 30h20.625A4.693 4.693 0 0 0 30 25.313a1.172 1.172 0 0 0-2.344 0 2.346 2.346 0 0 1-2.344 2.344H4.688a2.346 2.346 0 0 1-2.344-2.344V4.688a2.346 2.346 0 0 1 2.344-2.344h20.625a2.346 2.346 0 0 1 2.344 2.344v14.707a1.172 1.172 0 0 0 1.171 1.171z"/>
</svg>
