<svg xmlns="http://www.w3.org/2000/svg" width="30" height="30" viewBox="0 0 30 30">
    <defs>
        <clipPath id="rsmhszxm4a">
            <path fill="#fff" stroke="#707070" d="M0 0H30V30H0z" transform="translate(373 228)"/>
        </clipPath>
    </defs>
    <g clip-path="url(#rsmhszxm4a)" transform="translate(-373 -228)">
        <path fill="#2f2f2f" d="M22.611 20.684a1.172 1.172 0 0 0 1.172-1.172V7.617A4.693 4.693 0 0 0 19.1 2.93h-3.7V1.172A1.172 1.172 0 0 0 14.232 0H9.544a1.172 1.172 0 0 0-1.172 1.172V2.93H4.687A4.693 4.693 0 0 0 0 7.617v17.7A4.693 4.693 0 0 0 4.687 30H19.1a4.693 4.693 0 0 0 4.688-4.688 1.172 1.172 0 0 0-2.344 0 2.347 2.347 0 0 1-2.344 2.344H4.687a2.347 2.347 0 0 1-2.344-2.344V7.617a2.347 2.347 0 0 1 2.344-2.344h3.685v.586a3.516 3.516 0 0 0 7.031 0v-.586H19.1a2.347 2.347 0 0 1 2.344 2.344v11.895a1.172 1.172 0 0 0 1.167 1.172zM13.06 5.859a1.172 1.172 0 0 1-2.344 0V2.344h2.344zm-8.379 6.973a1.172 1.172 0 0 1 1.172-1.172h12.07a1.172 1.172 0 0 1 0 2.344H5.853a1.172 1.172 0 0 1-1.172-1.172zm8.145 5.859H5.853a1.172 1.172 0 1 1 0-2.344h6.973a1.172 1.172 0 1 1 0 2.344zm-4.864 2.344a1.172 1.172 0 1 1 0 2.344H5.853a1.172 1.172 0 1 1 0-2.344zm3.709 2.143a1.172 1.172 0 1 1 1.605-1.707l1.39 1.306 2.539-3.538a1.172 1.172 0 1 1 1.9 1.366L16.3 24.526l-.039.051a1.974 1.974 0 0 1-1.4.732h-.13a1.974 1.974 0 0 1-1.355-.539zm0 0" transform="translate(376.307 228)"/>
    </g>
</svg>
