<svg xmlns="http://www.w3.org/2000/svg" width="30" height="30" viewBox="0 0 30 30">
    <path fill="#7dc356" d="M10.546 15.207v.293a4.453 4.453 0 1 0 8.906 0v-.293a1.172 1.172 0 1 1 2.344 0v.293a6.8 6.8 0 0 1-13.596 0v-.293a1.172 1.172 0 0 1 2.344 0zm18.281-1.289a1.172 1.172 0 0 0-1.172 1.172v1a1.173 1.173 0 0 1-1.172 1.172h-.59a2.728 2.728 0 0 0-2.525 1.7l-.008.019a2.729 2.729 0 0 0 .585 2.986l.417.417a1.172 1.172 0 0 1 0 1.657l-.829.829a1.172 1.172 0 0 1-1.657 0l-.417-.417a2.73 2.73 0 0 0-2.988-.584l-.016.007a2.727 2.727 0 0 0-1.7 2.525v.59a1.173 1.173 0 0 1-1.172 1.172h-1.169a1.173 1.173 0 0 1-1.172-1.172v-.59a2.728 2.728 0 0 0-1.7-2.525l-.016-.006a2.729 2.729 0 0 0-2.987.584l-.417.417a1.172 1.172 0 0 1-1.657 0l-.829-.829a1.171 1.171 0 0 1 0-1.657l.417-.417a2.729 2.729 0 0 0 .585-2.986l-.008-.018a2.728 2.728 0 0 0-2.525-1.7h-.59a1.173 1.173 0 0 1-1.172-1.172v-1A1.172 1.172 0 0 0 0 15.09v1a3.519 3.519 0 0 0 3.515 3.51h.59a.391.391 0 0 1 .357.245l.01.025a.393.393 0 0 1-.072.43l-.417.417a3.516 3.516 0 0 0 0 4.972l.829.829a3.516 3.516 0 0 0 4.972 0l.416-.418a.393.393 0 0 1 .431-.077l.022.009a.392.392 0 0 1 .249.358v.59a3.52 3.52 0 0 0 3.512 3.52h1.172a3.52 3.52 0 0 0 3.514-3.516v-.59a.391.391 0 0 1 .248-.358l.023-.01a.393.393 0 0 1 .431.077l.417.417a3.516 3.516 0 0 0 4.972 0l.829-.829a3.516 3.516 0 0 0 0-4.972l-.42-.419a.393.393 0 0 1-.077-.431l.009-.022a.392.392 0 0 1 .358-.249h.59A3.52 3.52 0 0 0 30 16.086v-1a1.172 1.172 0 0 0-1.172-1.168zM.437 11.385a1.945 1.945 0 0 1-.4-1.63 5.745 5.745 0 0 1 2.726-3.78 3.516 3.516 0 1 1 5.834 0 5.8 5.8 0 0 1 1.741 1.571 5.8 5.8 0 0 1 1.741-1.571 3.516 3.516 0 1 1 5.834 0 5.8 5.8 0 0 1 1.741 1.571 5.8 5.8 0 0 1 1.746-1.57 3.515 3.515 0 1 1 2.978 1.554h-.092A3.4 3.4 0 0 0 21.1 9.758h6.558a1.172 1.172 0 0 1 2.3 0 1.947 1.947 0 0 1-1.9 2.346H1.944a1.934 1.934 0 0 1-1.507-.719zm11.35-1.627h6.423a3.4 3.4 0 0 0-3.18-2.227h-.061a3.4 3.4 0 0 0-3.181 2.227zm11.357-5.743a1.172 1.172 0 1 0 1.172-1.172 1.173 1.173 0 0 0-1.172 1.172zm-9.317 0A1.172 1.172 0 1 0 15 2.844a1.173 1.173 0 0 0-1.172 1.171zm-9.317 0a1.172 1.172 0 1 0 1.173-1.171 1.173 1.173 0 0 0-1.172 1.171zM2.471 9.758H8.9a3.4 3.4 0 0 0-3.186-2.227h-.061a3.4 3.4 0 0 0-3.182 2.227zm0 0" transform="translate(.001 -.5)"/>
</svg>
