<svg xmlns="http://www.w3.org/2000/svg" width="30.053" height="30.001" viewBox="0 0 30.053 30.001">
    <path fill="#2f2f2f" d="M24.779 15a1.466 1.466 0 0 0 1.465 1.465 1.172 1.172 0 1 1 0 2.344 3.815 3.815 0 0 1-3.623-2.637h-4.165v7.618a1.173 1.173 0 0 0 1.172 1.172h3.013a3.808 3.808 0 0 1 7.412 1.231 1.172 1.172 0 0 1-2.344 0 1.465 1.465 0 1 0-1.465 1.465 1.172 1.172 0 1 1 0 2.344 3.815 3.815 0 0 1-3.642-2.7h-2.974a3.519 3.519 0 0 1-3.516-3.515v-7.613h-4.394v1.873a3.522 3.522 0 0 1-2.344 3.315v7.466a1.172 1.172 0 1 1-2.344 0V20.39a1.172 1.172 0 0 1 1.17-1.172 1.173 1.173 0 0 0 1.172-1.172V11.66A1.173 1.173 0 0 0 8.2 10.488H3.515a1.173 1.173 0 0 0-1.171 1.172v6.386a1.173 1.173 0 0 0 1.172 1.172 1.172 1.172 0 0 1 1.171 1.172v8.437a1.172 1.172 0 1 1-2.344 0v-7.466A3.521 3.521 0 0 1 0 18.046V11.66a3.519 3.519 0 0 1 3.515-3.516H8.2a3.519 3.519 0 0 1 3.515 3.516v2.17h4.394V6.213A3.519 3.519 0 0 1 19.628 2.7H22.6a3.808 3.808 0 0 1 7.451 1.113 1.172 1.172 0 0 1-2.344 0 1.465 1.465 0 1 0-1.465 1.465 1.172 1.172 0 0 1 0 2.344 3.814 3.814 0 0 1-3.6-2.578h-3.014a1.173 1.173 0 0 0-1.172 1.172v7.614h4.165A3.808 3.808 0 0 1 30.053 15a1.172 1.172 0 1 1-2.344 0 1.465 1.465 0 0 0-2.93 0zM2.344 3.515a3.515 3.515 0 1 1 3.515 3.516 3.519 3.519 0 0 1-3.515-3.516zm2.344 0a1.172 1.172 0 1 0 1.171-1.171 1.173 1.173 0 0 0-1.172 1.171zm0 0"/>
</svg>
