<svg xmlns="http://www.w3.org/2000/svg" width="26.895" height="31.949" viewBox="0 0 26.895 31.949">
    <defs>
        <style>
            .prefix__cls-1{fill:#2f2f2f}
        </style>
    </defs>
    <g id="prefix__book" transform="translate(-40.5)">
        <g id="prefix__Group_9429" data-name="Group 9429" transform="translate(40.5)">
            <g id="prefix__Group_9428" data-name="Group 9428">
                <path id="prefix__Path_8165" d="M66.147 16.973a1.248 1.248 0 0 0 1.248-1.248V1.248A1.248 1.248 0 0 0 66.147 0h-21.9A3.748 3.748 0 0 0 40.5 3.744v24.461a3.748 3.748 0 0 0 3.744 3.744h21.9a1.248 1.248 0 0 0 0-2.5h-21.9a1.248 1.248 0 1 1 0-2.5h21.9a1.248 1.248 0 0 0 1.248-1.248v-3.736a1.248 1.248 0 1 0-2.5 0v2.5H47.988V6.24a1.248 1.248 0 0 0-2.5 0v18.221h-1.244a3.726 3.726 0 0 0-1.244.215V3.744A1.249 1.249 0 0 1 44.244 2.5H64.9v13.225a1.248 1.248 0 0 0 1.247 1.248z" class="prefix__cls-1" data-name="Path 8165" transform="translate(-40.5)"/>
                <path id="prefix__Path_8166" d="M225.18 90.231a1.248 1.248 0 0 0 1.248-1.248v-.953a3.837 3.837 0 0 0 2.295-1.072 3.757 3.757 0 0 0 1.137-2.71v-.679a3.867 3.867 0 0 0-3.847-3.878H224.7a1.316 1.316 0 0 1-1.333-1.327v-.194a1.327 1.327 0 0 1 1.333-1.35h1.239a.848.848 0 0 1 .861.874 1.248 1.248 0 0 0 2.5 0 3.359 3.359 0 0 0-.974-2.383 3.317 3.317 0 0 0-1.9-.952v-1.028a1.248 1.248 0 1 0-2.5 0V74.4a3.848 3.848 0 0 0-3.058 3.767v.193a3.81 3.81 0 0 0 3.829 3.824h1.31a1.385 1.385 0 0 1 1.351 1.382v.679a1.316 1.316 0 0 1-1.351 1.308h-2.129a.872.872 0 0 1-.888-.874 1.248 1.248 0 0 0-2.5 0 3.381 3.381 0 0 0 3.384 3.37h.048v.931a1.248 1.248 0 0 0 1.258 1.251z" class="prefix__cls-1" data-name="Path 8166" transform="translate(-209.268 -67.585)"/>
            </g>
        </g>
    </g>
</svg>
