<svg xmlns="http://www.w3.org/2000/svg" width="59.613" height="67.676" viewBox="0 0 59.613 67.676">
    <g id="Group_9673" data-name="Group 9673" transform="translate(-287.693 -162.162)">
        <path id="money_1_" fill="#7dc356" d="M59.613 37.87a29.545 29.545 0 0 1-5.006 16.472 2.644 2.644 0 0 1-4.4-2.938 24.276 24.276 0 0 0 4.119-13.534 24.519 24.519 0 1 0-24.519 24.519 24.034 24.034 0 0 0 12.641-3.451 2.644 2.644 0 1 1 2.74 4.522A29.95 29.95 0 0 1 8.73 58.946a29.807 29.807 0 0 1 18.5-50.772V5.287h-2.512a2.644 2.644 0 0 1 0-5.287h10.574a2.644 2.644 0 0 1 0 5.287h-2.776v2.9a29.52 29.52 0 0 1 13.026 4.358l2.211-2.811A2.643 2.643 0 1 1 51.91 13l-2.146 2.73q.571.516 1.119 1.063a29.613 29.613 0 0 1 8.73 21.077z" data-name="money (1)" transform="translate(287.693 162.162)"/>
        <g id="check" transform="translate(305.976 127.27)">
            <g id="Group_9672" data-name="Group 9672" transform="translate(0 63.498)">
                <path id="Path_8233" fill="#7dc356" stroke="#7dc356" stroke-width="3.5px" d="M23.306 63.7a.924.924 0 0 0-1.3.141L9.714 79.143a.924.924 0 0 1-1.308.041l-6.843-6.559a.924.924 0 1 0-1.279 1.333L7.13 80.52a2.748 2.748 0 0 0 1.906.763h.115a2.749 2.749 0 0 0 1.953-.92l.032-.038L23.447 65a.924.924 0 0 0-.141-1.3z" data-name="Path 8233" transform="translate(0 -63.498)"/>
            </g>
        </g>
    </g>
</svg>
