<svg xmlns="http://www.w3.org/2000/svg" width="30" height="30" viewBox="0 0 30 30">
    <defs>
        <clipPath id="37uxm2fe7a">
            <path fill="#fff" stroke="#707070" d="M0 0H30V30H0z" transform="translate(75 331)"/>
        </clipPath>
    </defs>
    <g clip-path="url(#37uxm2fe7a)" transform="translate(-75 -331)">
        <path fill="#2f2f2f" d="M27.979 14.7a8.77 8.77 0 0 0-3.839-.81 8.77 8.77 0 0 0-3.839.81 3.128 3.128 0 0 0-2.02 2.7V19.02a8.822 8.822 0 0 0-3.516-.686 8.77 8.77 0 0 0-3.839.81 3.128 3.128 0 0 0-2.021 2.705V26.478a2.44 2.44 0 0 0 .287 1.147c-4.238-.3-6.85-3.328-6.85-8 0-3.249 1.754-6.263 5.215-8.956l.111-.085a13.936 13.936 0 0 0-2.688 7.931 1.172 1.172 0 0 0 2.344 0c0-3.629 2.1-7.3 6.254-10.91l.054-.047h3.537a24.6 24.6 0 0 1 6.365 4.028A1.172 1.172 0 1 0 25.1 9.845a26.562 26.562 0 0 0-6.251-4.1l1.575-4.029a1.173 1.173 0 0 0 .08-.427v-.118a1.172 1.172 0 0 0-1.586-1.1 10.642 10.642 0 0 1-7.842 0 1.172 1.172 0 0 0-1.587 1.1v.117a1.173 1.173 0 0 0 .08.427l1.575 4.03a27.523 27.523 0 0 0-4.98 3.04 18.246 18.246 0 0 0-4.194 4.43A11.663 11.663 0 0 0 0 19.628a10.629 10.629 0 0 0 2.684 7.508A9.592 9.592 0 0 0 9.589 30h5.372a8.665 8.665 0 0 0 3.644-.808 4.98 4.98 0 0 0 .849-.531 4.963 4.963 0 0 0 .849.531 8.772 8.772 0 0 0 3.839.81 8.77 8.77 0 0 0 3.839-.81A3.128 3.128 0 0 0 30 26.483V17.4a3.128 3.128 0 0 0-2.021-2.7zM17.437 2.927l-.894 2.287h-3.087l-.894-2.287a12.775 12.775 0 0 0 4.875 0zm.119 24.166a6.5 6.5 0 0 1-2.783.563h-.015a6.5 6.5 0 0 1-2.783-.563c-.6-.3-.725-.569-.725-.609v-1.775a9.068 9.068 0 0 0 3.516.661h.134a1.172 1.172 0 1 0-.027-2.344h-.1a6.5 6.5 0 0 1-2.791-.563c-.6-.3-.725-.569-.725-.609s.126-.31.725-.609a6.506 6.506 0 0 1 2.791-.563 6.281 6.281 0 0 1 2.776.585c.564.292.74.576.74.646v4.57c-.008.041-.134.31-.733.609zm10.1-.609c0 .041-.126.31-.725.609a6.5 6.5 0 0 1-2.791.563 6.5 6.5 0 0 1-2.791-.563c-.6-.3-.725-.569-.725-.609v-1.775a9.068 9.068 0 0 0 3.516.661h.133a1.172 1.172 0 0 0-.015-2.344h-.117a6.5 6.5 0 0 1-2.791-.563c-.6-.3-.725-.569-.725-.609v-1.6a9.073 9.073 0 0 0 3.516.661h.133a1.172 1.172 0 0 0-.031-2.344h-.1a6.5 6.5 0 0 1-2.791-.563c-.6-.3-.725-.569-.725-.609s.126-.31.725-.609a6.506 6.506 0 0 1 2.791-.563 6.506 6.506 0 0 1 2.791.563c.6.3.725.569.725.609zm0 0" transform="translate(75 331.004)"/>
    </g>
</svg>
