<svg xmlns="http://www.w3.org/2000/svg" width="30" height="30" viewBox="0 0 30 30">
    <defs>
        <clipPath id="clip-path">
            <path id="Rectangle_2205" fill="#fff" stroke="#707070" d="M0 0H30V30H0z" transform="translate(743 410)"/>
        </clipPath>
        <style>
            .cls-3{fill:#2f2f2f}
        </style>
    </defs>
    <g id="Mask_Group_100" clip-path="url(#clip-path)" transform="translate(-743 -410)">
        <g id="exchange" transform="translate(743 412.424)">
            <path id="Path_8206" d="M6.8 236.407a1.939 1.939 0 0 1-1.368-.566l-4.554-4.524a2.976 2.976 0 0 1 0-4.221l4.551-4.524a1.942 1.942 0 0 1 3.312 1.371v4.271h15.693a.993.993 0 0 1 0 1.987H8.74a1.989 1.989 0 0 1-1.987-1.987v-4.158l-4.475 4.449a.99.99 0 0 0 0 1.4l4.475 4.449v-.979a.993.993 0 0 1 1.987 0v1.092a1.93 1.93 0 0 1-1.194 1.786 1.95 1.95 0 0 1-.746.154zm0 0" class="cls-3" transform="translate(0 -210.982)"/>
            <path id="Path_8207" d="M18.63 14.4a1.95 1.95 0 0 1-.75-.15 1.93 1.93 0 0 1-1.194-1.786v-1.093a.993.993 0 1 1 1.987 0v.979l4.476-4.45a.99.99 0 0 0 0-1.4l-4.475-4.452v4.158a1.989 1.989 0 0 1-1.987 1.987H.993a.993.993 0 0 1 0-1.987h15.694V1.935A1.942 1.942 0 0 1 20 .564l4.55 4.524a2.976 2.976 0 0 1 0 4.221L20 13.834a1.938 1.938 0 0 1-1.37.566zm0 0" class="cls-3" transform="translate(4.573)"/>
        </g>
    </g>
</svg>
