<svg xmlns="http://www.w3.org/2000/svg" width="30" height="30" viewBox="0 0 30 30">
    <defs>
        <clipPath id="clip-path">
            <path id="Rectangle_2203" fill="#7dc356" stroke="#707070" d="M0 0H30V30H0z" transform="translate(233 331)"/>
        </clipPath>
        <style>
            .cls-3{fill:#7dc356}
        </style>
    </defs>
    <g id="Mask_Group_98" clip-path="url(#clip-path)" transform="translate(-233 -331)">
        <g id="bank" transform="translate(233 329.244)">
            <g id="Group_9807" transform="translate(0 1.999)">
                <g id="Group_9806">
                    <circle id="Ellipse_549" cx="1" cy="1" r="1" class="cls-3" transform="translate(14.001 5.756)"/>
                    <path id="Path_8235" d="M28.607 470H1.163a1.163 1.163 0 1 0 0 2.326h27.444a1.163 1.163 0 1 0 0-2.326z" class="cls-3" transform="translate(0 -442.789)"/>
                    <path id="Path_8236" d="M29.77 9.267a1.163 1.163 0 0 0-.692-1.067l-13.75-6.1a1.163 1.163 0 0 0-.945 0L.689 8.205A1.163 1.163 0 0 0 0 9.267V12.407a1.163 1.163 0 0 0 1.163 1.163 1.035 1.035 0 0 1 .988 1.163V25.721a1.163 1.163 0 0 0 1.163 1.163h23.258a1.163 1.163 0 0 0 0-2.326h-3.489v-9.825a1.163 1.163 0 0 1 2.326 0v5.147a1.163 1.163 0 0 0 2.326 0v-5.147c0-.273.063-1.163.872-1.163a1.163 1.163 0 0 0 1.163-1.163v-.029-.029zM6.8 24.559H4.477v-9.826a1.163 1.163 0 0 1 2.326 0zm4.651 0H9.129v-9.826a1.163 1.163 0 0 1 2.326 0zm4.651 0H13.78v-9.826a1.163 1.163 0 0 1 2.326 0zm4.651 0h-2.321v-9.826a1.163 1.163 0 0 1 2.326 0zm6.687-13.373H2.326v-1.164l12.531-5.587 12.587 5.588z" class="cls-3" transform="translate(0 -1.999)"/>
                </g>
            </g>
        </g>
    </g>
</svg>
