<svg xmlns="http://www.w3.org/2000/svg" width="26.742" height="29.83" viewBox="0 0 26.742 29.83">
    <path fill="#2f2f2f" d="M12.526 28.665a1.165 1.165 0 0 1-1.165 1.165h-6.7A4.666 4.666 0 0 1 0 25.169V4.661A4.666 4.666 0 0 1 4.661 0h14.326a4.666 4.666 0 0 1 4.661 4.661v12.351a1.165 1.165 0 0 1-2.33 0V4.661a2.333 2.333 0 0 0-2.33-2.33H4.661a2.333 2.333 0 0 0-2.33 2.33v20.508a2.333 2.333 0 0 0 2.33 2.33h6.7a1.165 1.165 0 0 1 1.165 1.166zm13.729-9.687a1.165 1.165 0 0 0-1.626.269l-5.743 8.023a.666.666 0 0 1-.958.05l-3.718-3.57a1.165 1.165 0 0 0-1.61 1.68L16.317 29a3.006 3.006 0 0 0 2.067.826q.1 0 .2-.007a3 3 0 0 0 2.136-1.113l.039-.051 5.765-8.055a1.165 1.165 0 0 0-.269-1.622zM17.822 6.991h-12a1.165 1.165 0 1 0 0 2.33h12a1.165 1.165 0 1 0 0-2.33zm1.165 5.826a1.165 1.165 0 0 0-1.165-1.165h-12a1.165 1.165 0 1 0 0 2.33h12a1.165 1.165 0 0 0 1.165-1.164zM5.82 16.313a1.165 1.165 0 1 0 0 2.33h7.289a1.165 1.165 0 1 0 0-2.33zm0 0"/>
</svg>
