<svg xmlns="http://www.w3.org/2000/svg" id="payment" width="26.232" height="26.232" viewBox="0 0 26.232 26.232">
    <defs>
        <style>
            .cls-1{fill:#2f2f2f}
        </style>
    </defs>
    <g id="Group_9435">
        <g id="Group_9434">
            <path id="Path_8167" d="M22.133 0H4.1A4.1 4.1 0 0 0 0 4.1v11.065a4.1 4.1 0 0 0 4.1 4.1h8.607a1.025 1.025 0 1 0 0-2.049H4.1a2.052 2.052 0 0 1-2.049-2.049V4.1A2.052 2.052 0 0 1 4.1 2.049h18.033a2.052 2.052 0 0 1 2.05 2.051v8.249a1.025 1.025 0 1 0 2.049 0V4.1A4.1 4.1 0 0 0 22.133 0z" class="cls-1"/>
            <ellipse id="Ellipse_547" cx="1.5" cy="1" class="cls-1" rx="1.5" ry="1" transform="translate(3.693 8.232)"/>
            <path id="Path_8168" d="M312.4 270.875v-.839a3.075 3.075 0 0 0-6.148 0v.839a2.565 2.565 0 0 0-2.252 2.543v5.123a1.025 1.025 0 0 0 1.025 1.025h8.607a1.025 1.025 0 0 0 1.025-1.025v-5.123a2.565 2.565 0 0 0-2.257-2.543zm-4.1-.839a1.026 1.026 0 0 1 2.049 0v.82H308.3zm4.3 7.48h-6.558v-4.1a.513.513 0 0 1 .512-.512h5.546a.513.513 0 0 1 .512.512z" class="cls-1" transform="translate(-288.425 -253.334)"/>
            <path id="Path_8169" d="M165.349 85.411a5.186 5.186 0 1 0-5.175 5.533 5.369 5.369 0 0 0 5.175-5.533zm-5.174 3.489a3.5 3.5 0 1 1 3.125-3.484 3.323 3.323 0 0 1-3.125 3.484z" class="cls-1" transform="translate(-147.059 -75.786)"/>
            <circle id="Ellipse_548" cx="1" cy="1" r="1" class="cls-1" transform="translate(19.693 8.232)"/>
        </g>
    </g>
</svg>
