<svg xmlns="http://www.w3.org/2000/svg" width="30" height="30" viewBox="0 0 30 30">
    <path fill="none" d="M0 0H30V30H0z"/>
    <path fill="#7dc356" d="M15 7.031a3.516 3.516 0 1 0-3.516-3.516A3.519 3.519 0 0 0 15 7.031zm0-4.687a1.172 1.172 0 1 1-1.172 1.172A1.173 1.173 0 0 1 15 2.344zm6.445 16.295a4.122 4.122 0 0 1-1.991 3.517l-.085.051a1.767 1.767 0 0 0-.854 1.507v5.115a1.172 1.172 0 0 1-2.344 0v-5.115a4.122 4.122 0 0 1 1.992-3.514l.085-.051a1.767 1.767 0 0 0 .854-1.507v-5.22c0-2.421-2.246-2.93-4.131-2.93S10.84 11 10.84 13.418v5.2a1.765 1.765 0 0 0 .867 1.515l.1.059a4.117 4.117 0 0 1 2.022 3.535v5.1a1.172 1.172 0 0 1-2.344 0v-5.1a1.764 1.764 0 0 0-.867-1.515l-.1-.059A4.118 4.118 0 0 1 8.5 18.621v-5.2A4.759 4.759 0 0 1 10.557 9.3a7.786 7.786 0 0 1 4.413-1.159A7.786 7.786 0 0 1 19.384 9.3a4.759 4.759 0 0 1 2.061 4.115zM5.859 9.375a3.516 3.516 0 1 0-3.515-3.516 3.519 3.519 0 0 0 3.515 3.516zm0-4.687a1.172 1.172 0 1 1-1.171 1.171 1.173 1.173 0 0 1 1.171-1.171zm3.516 20.039v4.1a1.172 1.172 0 0 1-2.344 0v-4.1a1.172 1.172 0 0 1 2.344 0zM6.914 11.689a1.172 1.172 0 0 1-1.172 1.172c-3.4 0-3.4 1.6-3.4 2.2v4.98a1.766 1.766 0 0 0 .7 1.406 4.121 4.121 0 0 1 1.641 3.281v4.1a1.172 1.172 0 0 1-2.344 0v-4.1a1.766 1.766 0 0 0-.7-1.406A4.121 4.121 0 0 1 0 20.039v-4.98a4.068 4.068 0 0 1 1.881-3.62 7.144 7.144 0 0 1 3.861-.921 1.172 1.172 0 0 1 1.172 1.171zm17.227-2.314a3.516 3.516 0 1 0-3.516-3.516 3.519 3.519 0 0 0 3.516 3.516zm0-4.687a1.172 1.172 0 1 1-1.172 1.172 1.173 1.173 0 0 1 1.172-1.172zm-1.172 20.039v4.1a1.172 1.172 0 0 1-2.344 0v-4.1a1.172 1.172 0 0 1 2.344 0zM30 15.059v4.98a4.121 4.121 0 0 1-1.641 3.281 1.766 1.766 0 0 0-.7 1.406v4.1a1.172 1.172 0 0 1-2.344 0v-4.1a4.121 4.121 0 0 1 1.641-3.281 1.766 1.766 0 0 0 .7-1.406v-4.98c0-.6 0-2.2-3.4-2.2a1.172 1.172 0 0 1 0-2.344 7.144 7.144 0 0 1 3.861.921A4.068 4.068 0 0 1 30 15.059zm0 0"/>
</svg>
