<svg id="deactivate_ic_15px" xmlns="http://www.w3.org/2000/svg" width="15" height="15" viewBox="0 0 15 15">
  <defs>
    <style>
      .cls-1 {
        fill: none;
      }

      .cls-2 {
        fill: #2f2f2f;
      }
    </style>
  </defs>
  <rect id="boundary" class="cls-1" width="15" height="15"/>
  <path id="Path_8138" data-name="Path 8138" class="cls-2" d="M12.782,2.218A7.441,7.441,0,0,0,7.5,0,7.5,7.5,0,1,0,15,7.5,7.44,7.44,0,0,0,12.782,2.218Zm-5.282,11A5.711,5.711,0,0,1,2.886,4.134l7.98,7.972A5.6,5.6,0,0,1,7.5,13.213Zm4.605-2.347L4.134,2.886A5.711,5.711,0,0,1,13.213,7.5,5.6,5.6,0,0,1,12.105,10.866Z"/>
</svg>
