<svg xmlns="http://www.w3.org/2000/svg" id="prefix__holder" width="68.765" height="68.765" viewBox="0 0 68.765 68.765">
    <g id="prefix__Group_9389" data-name="Group 9389">
        <path id="prefix__Path_8157" d="M54.394 34.517a8.058 8.058 0 0 0 0 16.117H65.81c.046 0 .09 0 .135-.007s.089.007.134.007a2.686 2.686 0 0 0 2.686-2.686V26.862a10.735 10.735 0 0 0-4.453-8.7L55.174 3.169a2.686 2.686 0 0 0-3.709-.885l-6.739 4.179-3.04-5.143a2.686 2.686 0 0 0-3.707-.929L12.1 16.117H8.058A2.689 2.689 0 0 1 5.373 13.5a2.689 2.689 0 0 1 2.685-2.619h4.969a2.686 2.686 0 0 0 0-5.372H8.058A8.072 8.072 0 0 0 .219 11.7 2.674 2.674 0 0 0 0 12.76v45.261a10.757 10.757 0 0 0 10.745 10.745h47.276a10.732 10.732 0 0 0 10.194-7.343 2.686 2.686 0 1 0-5.1-1.7 5.366 5.366 0 0 1-5.1 3.67h-47.27a5.378 5.378 0 0 1-5.372-5.372V21.029a8.02 8.02 0 0 0 2.686.461h49.962a5.378 5.378 0 0 1 5.372 5.372v7.656zm9 10.744h-9a2.686 2.686 0 0 1 0-5.372h9zM22.446 16.117l16-9.723 2.86 4.841a2.692 2.692 0 0 0 .2.388 2.723 2.723 0 0 0 .191.266l2.5 4.228zm27.984 0l-2.971-5.028L52 8.276l4.78 7.841z" data-name="Path 8157" style="fill:#7dc356"/>
    </g>
</svg>
