<svg xmlns="http://www.w3.org/2000/svg" width="30.498" height="25.849" viewBox="0 0 30.498 25.849">
    <defs>
        <style>
            .cls-1{fill:#2f2f2f}
        </style>
    </defs>
    <g id="exchange" transform="translate(0 .002)">
        <path id="Path_8206" d="M6.91 236.646a1.971 1.971 0 0 1-1.391-.575l-4.626-4.6a3.026 3.026 0 0 1 0-4.291l4.626-4.6a1.974 1.974 0 0 1 3.367 1.394v4.341H24.84a1.01 1.01 0 0 1 0 2.02H8.885a2.022 2.022 0 0 1-2.019-2.02v-4.225l-4.55 4.523a1.006 1.006 0 0 0 0 1.427l4.55 4.523v-1a1.01 1.01 0 1 1 2.019 0v1.11a1.962 1.962 0 0 1-1.213 1.816 1.983 1.983 0 0 1-.762.157zm0 0" class="cls-1" data-name="Path 8206" transform="translate(0 -210.799)"/>
        <path id="Path_8207" d="M18.94 14.639a1.982 1.982 0 0 1-.762-.153 1.962 1.962 0 0 1-1.213-1.816v-1.11a1.01 1.01 0 1 1 2.019 0v1l4.55-4.523a1.006 1.006 0 0 0 0-1.427l-4.55-4.523v4.222a2.022 2.022 0 0 1-2.019 2.019H1.01a1.01 1.01 0 0 1 0-2.019h15.954V1.967A1.974 1.974 0 0 1 20.331.574l4.626 4.6a3.026 3.026 0 0 1 0 4.291l-4.626 4.6a1.971 1.971 0 0 1-1.391.574zm0 0" class="cls-1" data-name="Path 8207" transform="translate(4.649)"/>
    </g>
</svg>
