<svg xmlns="http://www.w3.org/2000/svg" width="43.274" height="43.274" viewBox="0 0 43.274 43.274">
    <path id="Path_8232" fill="#7dc356" d="M40.914 2.36A8 8 0 0 0 35.217 0H8.058A8.067 8.067 0 0 0 0 8.058v27.159a8.067 8.067 0 0 0 8.058 8.058h27.159a8.067 8.067 0 0 0 8.058-8.058V8.058a8 8 0 0 0-2.361-5.698zm-26.9 16.023a1.268 1.268 0 0 1 1.793 0l4.558 4.558V9.415a1.268 1.268 0 1 1 2.536 0V22.94l4.557-4.557a1.268 1.268 0 0 1 1.793 1.793L22.534 26.9a1.268 1.268 0 0 1-1.793 0l-6.722-6.722a1.268 1.268 0 0 1 0-1.795zm19.84 16.744H9.416a1.268 1.268 0 1 1 0-2.536h24.443a1.268 1.268 0 0 1 0 2.536z" data-name="Path 8232"/>
</svg>
