<svg xmlns="http://www.w3.org/2000/svg" width="65.318" height="65.31" viewBox="0 0 65.318 65.31">
    <path id="prefix__network" d="M37.823 43.314a24.223 24.223 0 0 0-5.089-2.714 12.986 12.986 0 0 0 4.224-8.566 19.2 19.2 0 0 1 24.351-1.993 2.551 2.551 0 1 0 2.919-4.185 24.25 24.25 0 0 0-5.09-2.716 13.011 13.011 0 1 0-17.518-.029q-.534.206-1.061.437a24.228 24.228 0 0 0-4.494 2.581 13.009 13.009 0 1 0-20.873 14.42A24.535 24.535 0 0 0 .376 55.812a7.654 7.654 0 0 0 7.286 10h22.2a2.551 2.551 0 0 0 0-5.1H7.663a2.553 2.553 0 0 1-2.429-3.334 19.684 19.684 0 0 1 18.7-13.315A19.083 19.083 0 0 1 34.9 47.5a2.551 2.551 0 1 0 2.919-4.185zM50.395 5.6a7.909 7.909 0 1 1-7.909 7.909A7.917 7.917 0 0 1 50.395 5.6zM23.99 23.062a7.909 7.909 0 1 1-7.909 7.909 7.918 7.918 0 0 1 7.909-7.909zm41.329 30.63a2.551 2.551 0 0 1-2.551 2.551h-7.016v7.016a2.551 2.551 0 1 1-5.1 0v-7.016h-7.018a2.551 2.551 0 0 1 0-5.1h7.016v-7.018a2.551 2.551 0 0 1 5.1 0v7.016h7.016a2.551 2.551 0 0 1 2.553 2.551zm0 0" transform="translate(-.001 -.5)" style="fill:#7dc356"/>
</svg>
