<svg xmlns="http://www.w3.org/2000/svg" width="20" height="20" viewBox="0 0 20 20">
    <defs>
        <clipPath id="prefix__clip-path">
            <path id="prefix__Rectangle_1811" d="M0 0H20V20H0z" class="prefix__cls-1" data-name="Rectangle 1811" transform="translate(91 94)"/>
        </clipPath>
        <style>
            .prefix__cls-1{fill:#fff}
        </style>
    </defs>
    <g id="prefix__Home_icon" data-name="Home icon" transform="translate(-1216 -103)" style="opacity:.5">
        <g id="prefix__Mask_Group_52" data-name="Mask Group 52" transform="translate(1125 9)">
            <g id="prefix__house" transform="translate(91.234 94)">
                <g id="prefix__Group_8298" data-name="Group 8298">
                    <path id="prefix__Path_7437" d="M19.532 6.067L10.548.129a.781.781 0 0 0-.862 0L.7 6.067a.781.781 0 0 0-.35.652v12.5a.781.781 0 0 0 .783.781H19.1a.781.781 0 0 0 .781-.781v-12.5a.781.781 0 0 0-.349-.652zm-7.852 12.37H8.555V13.75h3.125zm6.641 0h-5.079v-5.468a.781.781 0 0 0-.781-.781H7.773a.781.781 0 0 0-.781.781v5.469H1.914V7.139l8.2-5.421 8.2 5.421z" class="prefix__cls-1" data-name="Path 7437" transform="translate(-.352)"/>
                </g>
            </g>
        </g>
    </g>
</svg>
