<svg xmlns="http://www.w3.org/2000/svg" id="prefix__social" width="65.318" height="65.318" viewBox="0 0 65.318 65.318">
    <g id="prefix__Group_9392" data-name="Group 9392">
        <path id="prefix__Path_8161" d="M65.153 55.97a2.551 2.551 0 0 0-5 1.04 2.666 2.666 0 0 1-.54 2.235 2.592 2.592 0 0 1-2.041.97H7.743a2.593 2.593 0 0 1-2.041-.97 2.666 2.666 0 0 1-.54-2.235 28.19 28.19 0 0 1 26.821-22.323q.337.013.676.013t.679-.013a28.069 28.069 0 0 1 22.669 12.459 2.551 2.551 0 1 0 4.238-2.846 33.188 33.188 0 0 0-17.2-13.066 17.35 17.35 0 1 0-20.769.006A33.186 33.186 0 0 0 .166 55.97a7.752 7.752 0 0 0 7.577 9.348h49.833a7.752 7.752 0 0 0 7.577-9.348zM20.412 17.35a12.247 12.247 0 1 1 12.867 12.232q-.309-.006-.62-.006t-.617.006a12.262 12.262 0 0 1-11.63-12.232z" data-name="Path 8161" style="fill:#7dc356"/>
    </g>
</svg>
