<svg xmlns="http://www.w3.org/2000/svg" width="30" height="30" viewBox="0 0 30 30">
    <path fill="#2f2f2f" d="M29.872 19.195a16.687 16.687 0 0 1-4.334 9.3l-.005.005-1.523 1.625a1.172 1.172 0 0 1-1.71-1.6l1.52-1.623a14.353 14.353 0 0 0 3.726-8 1.172 1.172 0 1 1 2.326.293zM24.4 20.571l-2.544 2.854a1.172 1.172 0 0 1-1.75-1.56L22.654 19l.015-.016a1.163 1.163 0 0 0 .3-.66v-.275a1.17 1.17 0 0 0-2.023-.657l-4.3 4.685.129.138a5.046 5.046 0 0 1-.272 7.136l-.9.831a1.172 1.172 0 1 1-1.592-1.72l.9-.83a2.7 2.7 0 0 0 .149-3.82L9.068 17.4a1.17 1.17 0 0 0-2.03.7v.2a1.166 1.166 0 0 0 .3.693l4 4.265a1.172 1.172 0 1 1-1.709 1.6l-4-4.272-.006-.006a3.5 3.5 0 0 1-.923-2.11v-.029a3.554 3.554 0 0 1-.005-.41v-7.053-3.997-.035a1.091 1.091 0 0 0-.326-.8 1.282 1.282 0 0 0-.869-.378 1.1 1.1 0 0 0-1.151 1.094V16.774A14.34 14.34 0 0 0 6.124 26.9l1.52 1.623a1.172 1.172 0 0 1-1.71 1.6L4.411 28.5h-.005A16.672 16.672 0 0 1 0 16.735V6.842v-.034a3.435 3.435 0 0 1 3.457-3.385h.108a3.6 3.6 0 0 1 2.462 1.069 3.543 3.543 0 0 1 .436.534 10.315 10.315 0 0 1 17.072-.012A3.521 3.521 0 0 1 30 6.808v6.403a1.172 1.172 0 0 1-1.172 1.172 1.172 1.172 0 0 1-1.172-1.172V6.862a1.121 1.121 0 0 0-.359-.783 1.184 1.184 0 0 0-.846-.312 1.167 1.167 0 0 0-.818.358 1.13 1.13 0 0 0-.31.82v.035l-.006 10.993a3.5 3.5 0 0 1-.917 2.598zm-2.429-5.889a7.971 7.971 0 1 0-13.935 0c.1 0 .2-.006.306 0a3.493 3.493 0 0 1 2.442 1.118l2.628 2.815a8.058 8.058 0 0 0 3.243-.014l2.57-2.8a3.514 3.514 0 0 1 2.744-1.119zm-6.581-5.17h-.78a.4.4 0 0 1-.371-.4v-.053a.358.358 0 0 1 .371-.361h1.448a1.172 1.172 0 1 0 0-2.344v-.175a1.172 1.172 0 0 0-2.344 0v.328a2.71 2.71 0 0 0-1.818 2.553v.049a2.734 2.734 0 0 0 2.715 2.747h.78a.356.356 0 0 1 .375.352v.47a.359.359 0 0 1-.375.358h-2.382a1.172 1.172 0 1 0 0 2.344h.7v.12a1.172 1.172 0 0 0 2.344 0v-.2a2.71 2.71 0 0 0 2.051-2.619v-.47a2.711 2.711 0 0 0-2.716-2.699zm0 0" transform="translate(.001 -.499)"/>
</svg>
