<svg xmlns="http://www.w3.org/2000/svg" id="legalactions_ic_30px_inactive" width="30" height="30" viewBox="0 0 30 30">
    <defs>
        <style>
            .cls-1{fill:#2f2f2f}
        </style>
    </defs>
    <g id="auction">
        <g id="Group_9906">
            <g id="Group_9905">
                <path id="Path_8307" d="M28.828 27.656h-.743l-2.341-4.1a1.172 1.172 0 0 0-1.017-.59h-9.961a1.172 1.172 0 0 0-1.017.59l-2.341 4.1h-.743a1.172 1.172 0 0 0 0 2.344h18.163a1.172 1.172 0 0 0 0-2.344zm-14.722 0l1.339-2.344h8.6l1.339 2.344z" class="cls-1"/>
                <path id="Path_8308" d="M14.95 13.77h-1.356a1.172 1.172 0 0 0 0 2.344H25.9a1.172 1.172 0 0 0 0-2.344h-1.449q.067-.261.128-.521a1.172 1.172 0 0 0-2.283-.53c-.081.349-.174.7-.275 1.051h-4.646a20.583 20.583 0 0 1-.8-5.618 1.188 1.188 0 0 0 .007-.124c0-.035 0-.07-.005-.1a22.823 22.823 0 0 1 .766-5.58h4.62a21.844 21.844 0 0 1 .844 5.474 1.172 1.172 0 0 0 1.171 1.147H24a1.172 1.172 0 0 0 1.147-1.2 23.935 23.935 0 0 0-.761-5.424H25.9A1.172 1.172 0 1 0 25.9 0H13.6a1.172 1.172 0 1 0 0 2.344h1.335a25.421 25.421 0 0 0-.653 4.512H1.172a1.172 1.172 0 0 0 0 2.344h13.1a23.043 23.043 0 0 0 .678 4.57z" class="cls-1"/>
            </g>
        </g>
    </g>
    <path id="boundaries" fill="none" d="M0 0H30V30H0z"/>
</svg>
