<svg xmlns="http://www.w3.org/2000/svg" width="100" height="99.999" viewBox="0 0 100 99.999">
    <g id="prefix__nobranchesfounded_artwork" transform="translate(15 -.001)">
        <path id="prefix__boundaries" d="M0 0H100V99.677H0z" transform="translate(-15 .323)" style="fill:none"/>
        <path id="prefix__Subtraction_2" d="M2335.483 19208.637h-12.115a3.191 3.191 0 0 1-3.188-3.187v-25.35h-12.751v.674a22.341 22.341 0 0 0-6-5.365 3.185 3.185 0 0 1 2.813-1.689h19.126a3.2 3.2 0 0 1 3.188 3.193v12.592h18.49a3.2 3.2 0 0 1 3.188 3.193v3.188a12.768 12.768 0 0 1-12.751 12.751zm-8.927-12.756v6.375h8.927a6.382 6.382 0 0 0 6.375-6.375zm18.49-15.943a3.191 3.191 0 0 1-3.188-3.187v-9.521a8.4 8.4 0 0 0-12.91.2 10.617 10.617 0 0 1-7.543-3.119 10.825 10.825 0 0 1-15.206 0 22.161 22.161 0 0 0-20.448 2.918v5.135a22.713 22.713 0 0 0-6.375 2.045v-7.885a10.7 10.7 0 0 1-6.375-9.775v-4.143a3.212 3.212 0 0 1 .256-1.254l7.084-16.6a12.732 12.732 0 0 1 11.729-7.75h43.471a12.742 12.742 0 0 1 11.729 7.75l7.084 16.6a3.212 3.212 0 0 1 .256 1.254v4.143a10.7 10.7 0 0 1-6.375 9.775v10.225a3.191 3.191 0 0 1-3.189 3.189zm-5.42-24.234v1.047a4.3 4.3 0 1 0 8.608 0v-1.047zm-14.984 0v1.047a4.3 4.3 0 1 0 8.608 0v-1.047zm-15.3 0v.887a4.463 4.463 0 1 0 8.927 0v-.887zm-14.979 0v1.047a4.3 4.3 0 1 0 8.6 0v-1.047zm-14.984 0v1.047a4.3 4.3 0 1 0 8.608 0v-1.047zm12.693-22.328a6.367 6.367 0 0 0-5.864 3.877l-5.151 12.07h65.5l-5.15-12.07a6.367 6.367 0 0 0-5.864-3.877z" data-name="Subtraction 2" transform="translate(-2271 -19127)" style="fill:#e5e5e5"/>
        <path id="prefix__magnifying-glass" d="M54.025 22.159a22.162 22.162 0 0 1-2.9 10.964 2.11 2.11 0 1 1-3.666-2.091 17.928 17.928 0 1 0-6.815 6.774 2.11 2.11 0 1 1 2.069 3.679 22.145 22.145 0 0 1-24.893-2.2L3.6 53.412a2.11 2.11 0 1 1-2.977-2.994l14.2-14.108a22.155 22.155 0 1 1 39.2-14.151zm-22.264 8.652a2.11 2.11 0 0 0 0 4.221 2.11 2.11 0 1 0 0-4.221zm2.215-4.779a1.671 1.671 0 0 1 1-1.551A7.906 7.906 0 0 0 39.78 17.2v-.088a7.913 7.913 0 0 0-15.826.089 2.11 2.11 0 1 0 4.221 0 3.692 3.692 0 0 1 7.385 0v.061a3.692 3.692 0 0 1-2.245 3.34 5.885 5.885 0 0 0-3.559 5.433v.136a2.11 2.11 0 1 0 4.221 0v-.136z" transform="translate(-11.029 44.652)" style="stroke:#e5e5e5;stroke-width:2.5px;fill:#e5e5e5"/>
    </g>
</svg>
