<svg xmlns="http://www.w3.org/2000/svg" width="59.613" height="67.676" viewBox="0 0 59.613 67.676">
    <path id="money_1_" fill="#7dc356" d="M59.613 37.87a29.545 29.545 0 0 1-5.006 16.472 2.644 2.644 0 0 1-4.4-2.938 24.276 24.276 0 0 0 4.119-13.534 24.519 24.519 0 1 0-24.519 24.519 24.034 24.034 0 0 0 12.641-3.451 2.644 2.644 0 1 1 2.74 4.522A29.95 29.95 0 0 1 8.73 58.946a29.807 29.807 0 0 1 18.5-50.772V5.287h-2.512a2.644 2.644 0 0 1 0-5.287h10.574a2.644 2.644 0 0 1 0 5.287h-2.776v2.9a29.52 29.52 0 0 1 13.026 4.358l2.211-2.811A2.643 2.643 0 1 1 51.91 13l-2.146 2.73q.571.516 1.119 1.063a29.613 29.613 0 0 1 8.73 21.077zM29.87 55.516a2.643 2.643 0 0 0 2.644-2.644v-1.531a7.26 7.26 0 0 0 6.347-7.226v-.649a7.3 7.3 0 0 0-2.2-5.254 7.452 7.452 0 0 0-5.248-2.127h-2.425a2.229 2.229 0 0 1-2.148-2.247v-.964a2.067 2.067 0 0 1 2.148-2.074h2.29a1.287 1.287 0 0 1 1.371 1.2 2.644 2.644 0 0 0 5.287 0 6.548 6.548 0 0 0-5.422-6.379v-1.7a2.644 2.644 0 0 0-5.287 0v1.791a7.389 7.389 0 0 0-3.479 1.912 7.277 7.277 0 0 0-2.195 5.246v.964a7.494 7.494 0 0 0 7.436 7.534h2.423a2.106 2.106 0 0 1 2.163 2.094v.649a2.047 2.047 0 0 1-2.163 2.016h-3.938a1.216 1.216 0 0 1-1.307-1.19 2.644 2.644 0 0 0-5.287 0 6.456 6.456 0 0 0 6.347 6.471v1.46a2.643 2.643 0 0 0 2.643 2.648zm0 0" data-name="money (1)"/>
</svg>
