<svg xmlns="http://www.w3.org/2000/svg" id="prefix__permissions_ic_20px_inactive" width="20" height="20" viewBox="0 0 20 20">
    <defs>
        <style>
            .prefix__cls-2{fill:#2f2f2f}
        </style>
    </defs>
    <path id="prefix__Boundary" d="M0 0H20V20H0z" style="fill:none"/>
    <g id="prefix__key">
        <g id="prefix__Group_9422" data-name="Group 9422">
            <g id="prefix__Group_9421" data-name="Group 9421">
                <circle id="prefix__Ellipse_541" cx="1.25" cy="1.25" r="1.25" class="prefix__cls-2" data-name="Ellipse 541" transform="translate(12.969 4.221)"/>
            </g>
        </g>
        <g id="prefix__Group_9424" data-name="Group 9424">
            <g id="prefix__Group_9423" data-name="Group 9423">
                <path id="prefix__Path_8156" d="M19.784 6.482a11.4 11.4 0 0 0-2.458-3.864A11.134 11.134 0 0 0 13.491.209a3.141 3.141 0 0 0-3.332.706L7.091 3.969a3.126 3.126 0 0 0-.652 3.466c.161.362.336.716.523 1.059L.229 15.226a.781.781 0 0 0-.229.553v3.437A.781.781 0 0 0 .781 20h3.438A.781.781 0 0 0 5 19.216V17.81h1.406a.781.781 0 0 0 .781-.781v-1.407h1.407a.781.781 0 1 0 0-1.562H6.406a.781.781 0 0 0-.781.781v1.406H4.219a.781.781 0 0 0-.781.781v1.406H1.562V16.1L8.49 9.174a.781.781 0 0 0 .116-.958A12.643 12.643 0 0 1 7.867 6.8a1.555 1.555 0 0 1 .327-1.723l3.068-3.053a1.576 1.576 0 0 1 1.672-.354 9.565 9.565 0 0 1 3.291 2.057 9.829 9.829 0 0 1 2.105 3.326 1.551 1.551 0 0 1-.35 1.667l-3.1 3.09a1.573 1.573 0 0 1-1.719.335 10.141 10.141 0 0 1-1.406-.717.781.781 0 0 0-.817 1.332 11.709 11.709 0 0 0 1.624.828 3.131 3.131 0 0 0 3.422-.67l3.1-3.09a3.113 3.113 0 0 0 .7-3.346z" class="prefix__cls-2" data-name="Path 8156"/>
            </g>
        </g>
    </g>
</svg>
