<svg xmlns="http://www.w3.org/2000/svg" width="30" height="30" viewBox="0 0 30 30">
    <defs>
        <clipPath id="clip-path">
            <path id="Rectangle_2200" fill="#fff" stroke="#707070" d="M0 0H30V30H0z" transform="translate(6881 565)"/>
        </clipPath>
        <style>
            .cls-3{fill:#2f2f2f}
        </style>
    </defs>
    <g id="Mask_Group_95" clip-path="url(#clip-path)" transform="translate(-6881 -565)">
        <g id="fluctuation" transform="translate(6882.051 566.059)">
            <g id="Group_9854" transform="translate(.008)">
                <g id="Group_9853">
                    <path id="Path_8278" d="M11.038 295H2.2a2.193 2.193 0 0 0-1.552 3.739l4.029 4.052a2.733 2.733 0 0 0 3.872 0l4.039-4.049a2.193 2.193 0 0 0-1.55-3.742zm-4.05 6.234a.53.53 0 0 1-.75 0l-4.01-4.034h8.78z" class="cls-3" transform="translate(-.009 -278.748)"/>
                    <path id="Path_8279" d="M288.292 351.9a1.1 1.1 0 0 0-1.43.619 2.8 2.8 0 0 1-2.667 1.783h-3.8a2.206 2.206 0 0 1-2.2-2.2 1.1 1.1 0 1 0-2.2 0 4.412 4.412 0 0 0 4.407 4.407h1.157v2.259a1.1 1.1 0 1 0 2.2 0v-2.259h.441a5.093 5.093 0 0 0 2.882-.872 5 5 0 0 0 1.834-2.3 1.1 1.1 0 0 0-.624-1.437z" class="cls-3" transform="translate(-260.783 -331.663)"/>
                    <path id="Path_8280" d="M291.111 14.709h2.534a2.828 2.828 0 0 1 2.67 1.791 1.1 1.1 0 1 0 2.043-.827 5.058 5.058 0 0 0-4.712-3.168h-2.534a2.923 2.923 0 0 1-2.92-2.92v-1.1a2.923 2.923 0 0 1 2.92-2.92h2.424a2.206 2.206 0 0 1 2.2 2.2 1.1 1.1 0 0 0 2.2 0 4.412 4.412 0 0 0-4.407-4.407h-.329V1.1a1.1 1.1 0 1 0-2.2 0v2.26a5.129 5.129 0 0 0-5.013 5.122v1.1a5.129 5.129 0 0 0 5.124 5.127z" class="cls-3" transform="translate(-270.232)"/>
                    <path id="Path_8281" d="M2.2 73.594h8.839a2.193 2.193 0 0 0 1.549-3.742L8.547 65.8a2.733 2.733 0 0 0-3.873 0L.647 69.855A2.193 2.193 0 0 0 2.2 73.594zm4.036-6.234a.53.53 0 0 1 .751 0l4.021 4.031h-8.78z" class="cls-3" transform="translate(-.008 -61.419)"/>
                </g>
            </g>
        </g>
    </g>
</svg>
