<svg xmlns="http://www.w3.org/2000/svg" width="30" height="30" viewBox="0 0 30 30">
    <defs>
        <clipPath id="prefix__clip-path">
            <path id="prefix__Rectangle_1797" d="M0 0H30V30H0z" class="prefix__cls-1" data-name="Rectangle 1797"/>
        </clipPath>
        <style>
            .prefix__cls-1{fill:#fff}
        </style>
    </defs>
    <g id="prefix__refresh_icon_30_px" data-name="refresh icon 30 px" transform="translate(-878 -23)">
        <g id="prefix__Mask_Group_51" data-name="Mask Group 51" transform="translate(878 23)">
            <path id="prefix__reload_1_" d="M26.053 3.947A13.479 13.479 0 0 0 4.476 7.433H1.239a1.239 1.239 0 0 0-.876 2.115L4.5 13.682a1.119 1.119 0 0 0 1.582 0l4.135-4.135a1.239 1.239 0 0 0-.877-2.114H6.482a11.72 11.72 0 1 1 1.755 14.33.879.879 0 0 0-1.243 1.243A13.477 13.477 0 1 0 26.053 3.947zM5.29 11.988l-2.8-2.8h5.597zm0 0" class="prefix__cls-1" data-name="reload (1)" transform="translate(.067 1.523)"/>
        </g>
    </g>
</svg>
