<svg xmlns="http://www.w3.org/2000/svg" width="15" height="15" viewBox="0 0 15 15">
    <g id="Rollback_icon" data-name="Rollback icon" transform="translate(-88 -1957)">
        <path id="Rectangle_2180" fill="none" d="M0 0H15V15H0z" data-name="Rectangle 2180" transform="translate(88 1957)"/>
        <path id="arrow-undo" fill="#2f2f2f" d="M16.156 15.867a.577.577 0 0 1-.455-.222 8.133 8.133 0 0 0-2.644-2.416 8.815 8.815 0 0 0-3.825-.816v2.877a.577.577 0 0 1-.974.417L1.911 9.649a.577.577 0 0 1 0-.834l6.347-6.059a.577.577 0 0 1 .974.417v2.9a7.138 7.138 0 0 1 5.927 2.952 10.978 10.978 0 0 1 1.574 6.267.577.577 0 0 1-.577.575z" transform="translate(86.268 1955.267)"/>
    </g>
</svg>
