<svg xmlns="http://www.w3.org/2000/svg" width="16" height="16" viewBox="0 0 16 16">
    <path fill="#7dc356" d="M15.5 5.748l-3-3a1.714 1.714 0 0 0-1.212-.5H1.714A1.714 1.714 0 0 0 0 3.964v12.572a1.714 1.714 0 0 0 1.714 1.714h12.572A1.714 1.714 0 0 0 16 16.536V6.96a1.714 1.714 0 0 0-.5-1.212zM8 15.964a2.286 2.286 0 1 1 2.286-2.286A2.286 2.286 0 0 1 8 15.964zm3.429-10.875v3.59a.429.429 0 0 1-.429.428H2.714a.429.429 0 0 1-.429-.429V4.964a.429.429 0 0 1 .429-.429h8.161a.428.428 0 0 1 .3.126l.124.124a.428.428 0 0 1 .126.3z" transform="translate(0 -2.25)"/>
</svg>
