<svg xmlns="http://www.w3.org/2000/svg" id="danger" width="30" height="30" viewBox="0 0 30 30">
    <defs>
        <style>
            .cls-1{fill:#2f2f2f}
        </style>
    </defs>
    <g id="Group_9919">
        <g id="Group_9918">
            <path id="Path_8311" d="M27.949 6.445a2.051 2.051 0 1 0-.318-4.077A2.051 2.051 0 1 0 24.54 3.8l-1.388 1.391c-.078-.073-.156-.146-.236-.218a12.026 12.026 0 0 0-7.78-3.1h-.119a1.187 1.187 0 0 0-.134.008 1.174 1.174 0 0 0-.134-.008h-.119a12.025 12.025 0 0 0-7.78 3.1l-.114.105-1.253-1.252A2.026 2.026 0 0 0 6.5 2.072 2.111 2.111 0 0 0 4.409 0 2.043 2.043 0 0 0 2.4 2.072a2.019 2.019 0 0 0 .023.307A2.051 2.051 0 1 0 3.8 5.46l1.376 1.373a10.626 10.626 0 0 0-.9 1.5 9.392 9.392 0 0 0-.992 4.177 14.021 14.021 0 0 0 .892 4.445 3.42 3.42 0 0 0-.725 4.115l.009.017.788 1.445a1.172 1.172 0 0 0 1.029.611h1.2l-1.43 1.4A2.05 2.05 0 1 0 3.6 27.632 2.051 2.051 0 1 0 6.7 26.2l1.872-1.839a1.89 1.89 0 0 1 .11.433l.234 1.781a1.172 1.172 0 0 0 .333.676c.161.161 1.688 1.574 5.633 1.574s5.472-1.413 5.633-1.574a1.172 1.172 0 0 0 .333-.676l.234-1.781a1.886 1.886 0 0 1 .2-.628L23.31 26.2a2.05 2.05 0 1 0 3.09 1.432 2.051 2.051 0 1 0-1.434-3.091l-1.4-1.4h.934a1.172 1.172 0 0 0 1.036-.641l.771-1.415.009-.017a3.422 3.422 0 0 0-1.732-4.753 1.172 1.172 0 1 0-.89 2.168 1.078 1.078 0 0 1 .549 1.49l-.443.827h-.828a4.257 4.257 0 0 0-4.209 3.691l-.167 1.268a7.76 7.76 0 0 1-3.71.724 7.76 7.76 0 0 1-3.71-.724l-.167-1.268A4.257 4.257 0 0 0 6.8 20.8h-.831l-.449-.824a1.078 1.078 0 0 1 .549-1.49 1.172 1.172 0 0 0 .617-1.579 11.882 11.882 0 0 1-1.062-4.4c0-4.323 4.33-8.276 9.084-8.293h.039a1.187 1.187 0 0 0 .134-.008 1.174 1.174 0 0 0 .134.008h.039c4.755.017 9.085 3.969 9.085 8.293a1.172 1.172 0 0 0 2.344 0 9.391 9.391 0 0 0-.992-4.177 10.6 10.6 0 0 0-.8-1.365L26.2 5.46a2.051 2.051 0 0 0 1.749.985z" class="cls-1"/>
            <path id="Path_8312" d="M223.249 306.633l1.624.851 1.624-.851c.9 0-.914-3.339-.914-3.339a1 1 0 0 0-1.421 0s-1.808 3.339-.913 3.339z" class="cls-1" transform="translate(-209.873 -285.145)"/>
            <path id="Path_8313" d="M139.973 235.284h-.9c-.667 0-1.446-.284-2.054-.284s-1.022.119-1.022.738c0 1.254.445 2.895 1.764 2.895s3.629-.995 3.629-2.249c.002-.948-.568-1.084-1.417-1.1z" class="cls-1" transform="translate(-127.975 -221.169)"/>
            <path id="Path_8314" d="M281.392 236.736c0-.565-.357-.733-.87-.738-.625-.006-1.482.227-2.206.227h-.84c-.88.008-1.476.131-1.476 1.1 0 1.254 2.311 2.249 3.629 2.249s1.763-1.584 1.763-2.838z" class="cls-1" transform="translate(-259.713 -222.11)"/>
        </g>
    </g>
</svg>
