<svg xmlns="http://www.w3.org/2000/svg" width="16" height="16" viewBox="0 0 16 16">
    <path fill="#d51b1b" d="M8.563.563a8 8 0 1 0 8 8 8 8 0 0 0-8-8zm3.923 10.1a.387.387 0 0 1 0 .548l-1.277 1.274a.387.387 0 0 1-.548 0l-2.1-2.116-2.1 2.116a.387.387 0 0 1-.548 0L4.64 11.208a.387.387 0 0 1 0-.548l2.116-2.1L4.64 6.462a.387.387 0 0 1 0-.548l1.277-1.277a.387.387 0 0 1 .548 0l2.1 2.119 2.1-2.116a.387.387 0 0 1 .548 0l1.277 1.277a.387.387 0 0 1 0 .548l-2.119 2.1z" transform="translate(-.563 -.563)"/>
</svg>
