<svg xmlns="http://www.w3.org/2000/svg" width="20" height="20" viewBox="0 0 20 20">
  <defs>
    <style>
      .cls-1 {
        fill: none;
      }

      .cls-2 {
        fill: #2f2f2f;
      }
    </style>
  </defs>
  <g id="users_ic_20px_inactive" transform="translate(0.416 0.416)">
    <rect id="boundaries" class="cls-1" width="20" height="20" transform="translate(-0.416 -0.416)"/>
    <path id="Path_8078" data-name="Path 8078" class="cls-2" d="M19.51,16.761a.764.764,0,0,0-1.5.311.8.8,0,0,1-.162.669.776.776,0,0,1-.611.291H2.319a.776.776,0,0,1-.611-.291.8.8,0,0,1-.162-.669,8.442,8.442,0,0,1,8.032-6.685q.1,0,.2,0t.2,0a8.4,8.4,0,0,1,6.788,3.731.764.764,0,1,0,1.269-.851,9.938,9.938,0,0,0-5.15-3.913,5.2,5.2,0,1,0-6.219,0,9.938,9.938,0,0,0-6.622,7.4,2.321,2.321,0,0,0,2.269,2.8H17.241a2.321,2.321,0,0,0,2.269-2.8ZM6.113,5.2A3.667,3.667,0,1,1,9.966,8.858l-.186,0-.185,0A3.672,3.672,0,0,1,6.113,5.2Z" transform="translate(0)"/>
  </g>
</svg>
