<svg xmlns="http://www.w3.org/2000/svg" id="prefix__users_ic_30px_inactive" width="30" height="30" viewBox="0 0 30 30">
    <path id="prefix__boundaries" d="M0 0H30V30H0z" style="fill:none"/>
    <path id="prefix__Path_8078" d="M29.887 25.674a1.17 1.17 0 0 0-2.292.477 1.223 1.223 0 0 1-.248 1.025 1.189 1.189 0 0 1-.936.445H3.552a1.189 1.189 0 0 1-.936-.445 1.223 1.223 0 0 1-.248-1.025 12.932 12.932 0 0 1 12.3-10.24q.154.006.31.006t.311-.006a12.876 12.876 0 0 1 10.4 5.715 1.17 1.17 0 1 0 1.944-1.3 15.224 15.224 0 0 0-7.889-5.994 7.959 7.959 0 1 0-9.527 0A15.223 15.223 0 0 0 .076 25.674a3.556 3.556 0 0 0 3.476 4.288h22.859a3.556 3.556 0 0 0 3.476-4.288zM9.363 7.959a5.618 5.618 0 1 1 5.9 5.611h-.567a5.625 5.625 0 0 1-5.333-5.611z" data-name="Path 8078" style="fill:#7dc356"/>
</svg>
