<svg xmlns="http://www.w3.org/2000/svg" width="15.03" height="15" viewBox="0 0 15.03 15">
    <defs>
        <style>
            .prefix__cls-2{fill:#2f2f2f}
        </style>
    </defs>
    <g id="prefix__visible_ic_15px" transform="translate(0 -.381)">
        <path id="prefix__boundary" d="M0 0H14V15H0z" transform="translate(.707 .381)" style="fill:none"/>
        <path id="prefix__Path_8083" d="M7.515 1.875A8.021 8.021 0 0 0 0 7.511a8.021 8.021 0 0 0 7.515 5.636 8.021 8.021 0 0 0 7.515-5.636 8.021 8.021 0 0 0-7.515-5.636zm0 9.394a3.758 3.758 0 1 1 3.758-3.758 3.758 3.758 0 0 1-3.758 3.758z" class="prefix__cls-2" data-name="Path 8083" transform="translate(0 .394)"/>
        <path id="prefix__Path_8084" d="M8.832 6.175a1.879 1.879 0 1 1-2.657 0 1.879 1.879 0 0 1 2.657 0" class="prefix__cls-2" data-name="Path 8084" transform="translate(.011 .402)"/>
    </g>
</svg>
