<svg xmlns="http://www.w3.org/2000/svg" width="170.766" height="61.433" viewBox="0 0 170.766 61.433">
    <g id="prefix__Logo" transform="translate(0 .501)">
        <path id="prefix__Union_5" d="M38.268 39.282a1.541 1.541 0 0 1 3.077-.169 1.541 1.541 0 1 1-3.077.169zm8.008 1.46a1.516 1.516 0 0 1-1.56-1.544c-.021-.886.635-1.428 1.559-1.549A1.548 1.548 0 0 1 47.82 39.2a1.488 1.488 0 0 1-1.528 1.546zM1.538 31.011A21.664 21.664 0 0 1 .463 18.429c.462-2.413.526-2.437 3.416-2.057a19.417 19.417 0 0 0-.549 11.292c1.39 5.5 5.377 8.993 10.367 9.025 5.218.033 9.447-3.465 10.842-9a23.159 23.159 0 0 0 .622-5.6q.037-11.04.092-22.08h2.328l.088 20.191a12.314 12.314 0 0 0 .539 4.083 5.571 5.571 0 0 0 5.425 4.148c2.262.082 4.533.087 6.794 0a4.8 4.8 0 0 0 4.973-4.857c.16-3.707.108-7.424.085-11.136-.005-.956.068-1.483 1.267-1.471 1.115.013 1.335.39 1.329 1.413-.021 3.333-.113 6.68.146 10 .322 4.131 2.564 6.052 6.643 6.1.854.01 1.709 0 2.564 0 1.286-.009 2.571-.018 3.855.03 1.1.04 1.512-.184 1.522-1.418a13.8 13.8 0 0 1 1.489-6.36 9.163 9.163 0 0 1 6.249-5.026 2.6 2.6 0 0 0 2.1-1.735 8.445 8.445 0 0 1 9.613-5.211 7.331 7.331 0 0 1 6.481 7.355c.059 4.531-.013 9.064.04 13.595.011 1.008-.3 1.258-1.281 1.255q-6.476-.021-12.953-.011c-6.634 0-13.268 0-19.9-.048-3.168-.025-5.517-1.779-7.212-4.587-1.414 3.443-3.974 4.716-7.37 4.63-1.258-.031-2.521-.064-3.775.007-3.523.2-6.529-.781-8.79-3.9-.4 1.286-.7 2.4-1.094 3.471a12.821 12.821 0 0 1-12.185 8.739h-.311a12.659 12.659 0 0 1-12.374-8.255zM69.5 18.6c-3.164 1.885-3.853 5.017-4.165 8.373-.121 1.294.283 1.561 1.5 1.564 4.592.011 4.592.053 4.592-4.527v-.754c0-1.194-.013-2.388 0-3.582.017-1.135-.092-1.653-.566-1.653a3.263 3.263 0 0 0-1.361.579zm9.961-7.478c-2.315.472-3.651 2-4.705 4.171 5.18 1.332 6.719 3.339 6.719 8.587v1.32c0 3.365 0 3.29 3.343 3.317 1.26.009 1.409-.458 1.391-1.525-.058-3.516.007-7.034-.029-10.551a5.22 5.22 0 0 0-5.352-5.459 6.848 6.848 0 0 0-1.37.141zm-5.534 8.169a61.025 61.025 0 0 1-.041 6.969c-.152 1.845.413 2.336 2.229 2.221 2.734-.173 2.742-.044 2.742-2.785v-.942c0-.879.049-1.763-.011-2.639a4.174 4.174 0 0 0-3.329-4.015 3.4 3.4 0 0 0-.724-.1c-.593 0-.9.315-.869 1.292zm65.988 12.159c-3.351-.071-5.538-2.01-7.382-4.607-2.636 5.848-11.129 6.59-14.6-.494-1.669 4.121-5 4.8-8.819 4.61-1.2-.061-2.395-.045-3.594-.031-.69.009-1.381.017-2.071.012-4.393-.037-7.13-2.372-7.463-6.8-.277-3.694-.18-7.419-.183-11.13 0-4.336.066-8.672.1-13.009l2.3.006q.049 10.756.106 21.512a16.419 16.419 0 0 0 .206 2.623 4.746 4.746 0 0 0 4.724 4.28c2.451.1 4.91.1 7.362.03 3.375-.094 5.321-2.08 5.38-5.5q.091-5.286-.005-10.575c-.017-1.032.218-1.39 1.324-1.409 1.2-.02 1.279.5 1.266 1.457-.047 3.147-.03 6.295-.013 9.441a7.894 7.894 0 0 0 1.767 5.236c1.7 2 3.9 2.366 6.331 1.713a4.717 4.717 0 0 0 3.739-4.615c.166-3.832.091-7.675.124-11.513.007-.822-.315-1.683 1.185-1.731 1.593-.05 1.321.844 1.348 1.773.106 3.644-.309 7.3.238 10.931a5.982 5.982 0 0 0 3.736 5.045c4.124 1.622 7.922-.935 7.983-5.374.057-4.153.035-8.309-.007-12.463-.01-.971.119-1.468 1.293-1.447 1.116.02 1.334.421 1.318 1.439-.057 3.524-.038 7.05-.018 10.575.027 4.745 2.33 7.039 7.05 7.053 1.951.005 3.9.04 5.853-.029 3.378-.119 5.311-2.109 5.346-5.521q.061-6.042-.011-12.085c-.013-1.017.2-1.411 1.317-1.431 1.181-.023 1.29.483 1.279 1.449-.045 3.965.016 7.931-.034 11.9-.069 5.435-2.889 8.177-8.325 8.182-.5 0-1-.006-1.5-.013-1.073-.014-2.147-.028-3.217.026a8.995 8.995 0 0 1-8.3-4.252c-1.317 3.135-3.575 4.748-6.9 4.748zm14.77-27.887a1.534 1.534 0 1 1 3.065-.126 1.428 1.428 0 0 1-1.479 1.557h-.118a1.39 1.39 0 0 1-1.468-1.431zm6.581.052a1.456 1.456 0 0 1 1.455-1.635 1.415 1.415 0 0 1 1.553 1.509 1.343 1.343 0 0 1-1.354 1.488q-.1.008-.193.008a1.379 1.379 0 0 1-1.461-1.369z" data-name="Union 5" transform="translate(1.841)" style="fill:#7dc356;stroke:transparent"/>
        <path id="prefix__Path_164" d="M9457.651 7345.836a73.005 73.005 0 0 1-19.683 9.975c-22.895 7.608-44.141 4.646-63.359-10.361a40.461 40.461 0 0 1-7.2-6.836c1.647.023 2.272 1.239 3.115 1.862a81.468 81.468 0 0 0 23.578 12.5c14.638 4.745 29.284 4.2 43.9-.089a124.312 124.312 0 0 0 18.5-7.28 5.675 5.675 0 0 1 .7-.226c.437-.124.542.068.449.455z" data-name="Path 164" transform="translate(-9367.411 -7298.92)" style="fill:#2a3390"/>
    </g>
</svg>
