<svg id="deactivate_ic_15px" xmlns="http://www.w3.org/2000/svg" width="20" height="20" viewBox="0 0 20 20">
  <defs>
    <style>
      .cls-1 {
        fill: none;
      }

      .cls-2 {
        fill: #edb600;
      }
    </style>
  </defs>
  <rect id="boundary" class="cls-1" width="20" height="20"/>
  <path id="Path_8138" data-name="Path 8138" class="cls-2" d="M17.043,2.957A9.921,9.921,0,0,0,10,0,10,10,0,1,0,20,10,9.921,9.921,0,0,0,17.043,2.957ZM10,17.617A7.615,7.615,0,0,1,3.848,5.512L14.488,16.141A7.468,7.468,0,0,1,10,17.617Zm6.141-3.129L5.512,3.848A7.615,7.615,0,0,1,17.617,10,7.468,7.468,0,0,1,16.141,14.488Z" transform="translate(0 0)"/>
</svg>
