<svg xmlns="http://www.w3.org/2000/svg" width="15" height="15" viewBox="0 0 15 15">
    <defs>
        <style>
            .prefix__cls-2{fill:#2f2f2f}
        </style>
    </defs>
    <g id="prefix__delete_ic_15px" transform="translate(-.267)">
        <path id="prefix__Boundary" d="M0 0H15V15H0z" transform="translate(.267)" style="fill:none"/>
        <path id="prefix__Path_8081" d="M11.875 1.875H10V1.25A1.251 1.251 0 0 0 8.75 0h-2.5A1.251 1.251 0 0 0 5 1.25v.625H3.125a1.251 1.251 0 0 0-1.25 1.25v.937a.312.312 0 0 0 .313.313h10.625a.312.312 0 0 0 .313-.313v-.937a1.251 1.251 0 0 0-1.251-1.25zm-3.125 0h-2.5V1.25h2.5z" class="prefix__cls-2" data-name="Path 8081" transform="translate(.59)"/>
        <path id="prefix__Path_8082" d="M12.188 5H2.813a.312.312 0 0 0-.313.313v8.437A1.251 1.251 0 0 0 3.75 15h7.5a1.251 1.251 0 0 0 1.25-1.25V5.312A.312.312 0 0 0 12.188 5z" class="prefix__cls-2" data-name="Path 8082" transform="translate(.59)"/>
    </g>
</svg>
