<svg xmlns="http://www.w3.org/2000/svg" width="15" height="15" viewBox="0 0 15 15">
  <defs>
    <style>
      .cls-1 {
        fill: none;
      }

      .cls-2 {
        fill: #2f2f2f;
      }
    </style>
  </defs>
  <g id="edit_ic_15px" transform="translate(0 0)">
    <rect id="boundary" class="cls-1" width="15" height="15" transform="translate(0 0)"/>
    <path id="Path_8079" data-name="Path 8079" class="cls-2" d="M11.118,4.837a.351.351,0,0,0-.482,0l-6.484,6.49a.341.341,0,0,0,.089.546l.532.267v.9L3.142,13.5,1.5,11.856l.466-1.632h.9l.266.533a.341.341,0,0,0,.25.184.342.342,0,0,0,.3-.1l6.484-6.49a.341.341,0,0,0,0-.482L8.9,2.618a.34.34,0,0,0-.241-.1h0a.341.341,0,0,0-.241.1L1.463,9.642s0,.009-.006.012a.334.334,0,0,0-.079.134L.785,11.861l-.772,2.7A.341.341,0,0,0,.341,15a.346.346,0,0,0,.094-.013l2.7-.772,2.071-.592c.006,0,.011-.006.017-.009a.63.63,0,0,0,.115-.068s.01-.005.014-.01l7.017-6.961a.341.341,0,0,0,0-.483Z"/>
    <path id="Path_8080" data-name="Path 8080" class="cls-2" d="M14.6,2.434,12.555.387a1.394,1.394,0,0,0-1.929,0L9.377,1.649a.341.341,0,0,0,0,.481l3.48,3.483a.341.341,0,0,0,.481,0L14.6,4.364a1.365,1.365,0,0,0,0-1.93Z"/>
  </g>
</svg>
