<svg width="127" height="44" viewBox="0 0 127 44" fill="none" xmlns="http://www.w3.org/2000/svg">
<path d="M22.504 29.2856C22.504 31.475 21.7907 33.2124 20.3139 34.5984C18.8371 35.9341 17.0086 36.607 14.8185 36.607H0V30.6213H6.65075L1.02474 10.8465H7.6353L13.1709 30.6213C15.2706 30.5811 16.3456 29.0546 16.3456 26.0718V7.86371H22.504V29.2856Z" fill="black"/>
<path d="M40.4972 36.607H34.5999C29.8178 36.607 27.0551 33.8351 27.0551 29.2454V7.81348H33.3039V25.9814C33.3039 29.0144 34.0675 30.6213 38.6587 30.6213H40.4872V36.607H40.4972Z" fill="black"/>
<path d="M71.0785 36.607H39.1509V30.6213H64.4177C64.1464 25.5797 60.3087 21.6529 55.0845 21.6529C52.4021 21.6529 49.3681 23.0388 47.5798 24.8667C46.957 24.023 45.9322 22.6371 44.4554 20.6285C47.4894 17.4549 51.1966 15.8982 55.5266 15.8982C65.7639 15.9384 71.0785 22.8982 71.0785 34.5482V36.607Z" fill="black"/>
<path d="M126.096 16.923C125.439 14.1606 124.266 11.5778 122.616 9.24421C120.965 6.92063 118.917 4.96602 116.52 3.44023C114.044 1.85461 111.31 0.807496 108.387 0.308872C105.463 -0.179779 102.54 -0.090027 99.6864 0.588102C96.9322 1.24629 94.3569 2.42304 92.0302 4.07847C89.7034 5.7339 87.7645 7.78823 86.2432 10.1916C84.6622 12.6747 83.6182 15.4172 83.121 18.3491C82.6239 21.281 82.7233 24.2129 83.3994 27.075C84.0557 29.8374 85.229 32.4203 86.8796 34.7538C88.5301 37.0774 90.5784 39.032 92.9748 40.5578C94.9336 41.8044 97.0515 42.7218 99.2987 43.3002C99.3881 43.3202 99.4776 43.3401 99.5572 43.3601C100.064 43.4797 100.581 43.5994 101.098 43.6892C102.003 43.8388 102.908 43.9385 103.803 43.9784C105.821 44.0681 107.83 43.8786 109.799 43.4099C112.553 42.7517 115.128 41.575 117.455 39.9196C119.772 38.2641 121.721 36.2098 123.242 33.8064C124.823 31.3233 125.867 28.5809 126.364 25.6489C126.871 22.727 126.772 19.7851 126.096 16.923ZM121.8 19.1868C122.049 20.8622 121.989 22.6572 121.651 24.5121C121.293 26.4667 120.617 28.3914 119.662 30.2463C118.698 32.1011 117.515 33.7566 116.133 35.1727C115.277 36.0502 114.373 36.8082 113.428 37.4364C113.766 36.509 113.955 35.5217 113.985 34.4846C114.035 32.9189 113.736 31.3133 113.1 29.7077C111.837 26.5465 109.371 23.7143 106.14 21.7198C104.877 20.9419 103.544 20.3236 102.192 19.8749C103.047 18.4089 104.052 17.0826 105.185 15.9258C106.498 14.5795 107.939 13.5025 109.441 12.7446C111.191 11.857 112.921 11.4481 114.522 11.5179C115.586 11.5678 116.6 11.8271 117.515 12.3058C119.802 13.5025 121.323 15.9457 121.8 19.1868ZM104.022 25.1703C106.517 26.716 108.417 28.8601 109.351 31.2236C110.674 34.5544 109.222 39.9894 104.718 39.052C101.556 38.3938 99.9251 34.8037 99.5075 31.9216C99.2589 30.2463 99.3185 28.4512 99.6566 26.5963C99.8455 25.5791 100.114 24.5719 100.472 23.5846C101.675 23.9237 102.878 24.4622 104.022 25.1703ZM95.4805 32.5C95.7986 34.684 96.4847 36.6386 97.5288 38.304C97.5387 38.324 97.5586 38.3439 97.5685 38.3639C97.1509 38.1544 96.7333 37.9251 96.3256 37.6758C93.8299 36.13 91.9307 33.9859 90.9961 31.6225C90.1409 29.4784 90.2006 27.424 91.1651 25.8484C92.1296 24.2727 93.9293 23.3054 96.2262 23.106C96.256 23.106 96.2958 23.106 96.3256 23.096C95.3512 26.2772 95.043 29.4983 95.4805 32.5ZM87.0983 19.0172C87.8938 14.2903 90.479 10.1517 94.3668 7.36939C97.6481 5.02586 101.536 3.87902 105.503 4.05853C106.239 4.08844 106.985 4.16822 107.721 4.29786C110.505 4.76657 113.09 5.87352 115.307 7.49903C114.721 7.4392 114.134 7.42922 113.527 7.45914C111.569 7.55887 109.57 8.11732 107.611 9.1046C103.723 11.0692 100.323 14.5795 98.0458 18.9774C98.0259 19.0073 98.016 19.0372 98.006 19.0671C97.3001 19.0272 96.5941 19.0272 95.8981 19.0871C94.1878 19.2366 92.6168 19.6954 91.2446 20.4433C89.773 21.2511 88.5898 22.358 87.7446 23.7442C87.496 24.1531 87.2773 24.5819 87.0983 25.0107C86.7702 23.0561 86.7602 21.0317 87.0983 19.0172Z" fill="#007AFF"/>
</svg>
