<svg xmlns="http://www.w3.org/2000/svg" width="30" height="30" viewBox="0 0 30 30">
    <defs>
        <clipPath id="prefix__clip-path">
            <path id="prefix__Rectangle_2139" fill="#a3a3a3" stroke="#707070" d="M0 0H30V30H0z" data-name="Rectangle 2139" transform="translate(1030 158)"/>
        </clipPath>
        <style>
            .prefix__cls-3{fill:#a3a3a3}
        </style>
    </defs>
    <g id="prefix__Mask_Group_71" clip-path="url(#prefix__clip-path)" data-name="Mask Group 71" transform="translate(-1030 -158)">
        <g id="prefix__photo" transform="translate(1030 158)">
            <g id="prefix__Group_9516" data-name="Group 9516">
                <g id="prefix__Group_9515" data-name="Group 9515">
                    <path id="prefix__Path_8183" d="M26.291 0H3.852A3.856 3.856 0 0 0 0 3.852v22.439a3.856 3.856 0 0 0 3.852 3.852h22.439a3.856 3.856 0 0 0 3.852-3.852V3.852A3.856 3.856 0 0 0 26.291 0zm2.076 26.291a2.079 2.079 0 0 1-2.076 2.076H3.852a2.079 2.079 0 0 1-2.076-2.076v-3.239l5.843-4.972a.574.574 0 0 1 .74 0l3.66 3.039a.888.888 0 0 0 1.2-.056l8.7-8.71a.575.575 0 0 1 .853.044l5.6 6.9v7zm0-9.815l-4.225-5.2a2.35 2.35 0 0 0-3.487-.179l-8.125 8.135-3.037-2.522a2.346 2.346 0 0 0-3.024.018l-4.694 3.993V3.852a2.079 2.079 0 0 1 2.077-2.077h22.439a2.079 2.079 0 0 1 2.076 2.076z" class="prefix__cls-3" data-name="Path 8183"/>
                </g>
            </g>
            <g id="prefix__Group_9518" data-name="Group 9518" transform="translate(5.208 3.709)">
                <g id="prefix__Group_9517" data-name="Group 9517">
                    <path id="prefix__Path_8184" d="M11.192 4.921A4.281 4.281 0 1 0 15.473 9.2a4.286 4.286 0 0 0-4.281-4.279zm0 6.786A2.505 2.505 0 1 1 13.7 9.2a2.508 2.508 0 0 1-2.508 2.508z" class="prefix__cls-3" data-name="Path 8184" transform="translate(-6.911 -4.921)"/>
                </g>
            </g>
        </g>
    </g>
</svg>
