<svg xmlns="http://www.w3.org/2000/svg" width="170.766" height="61.433"  xmlns:v="https://vecta.io/nano"><path d="M40.109 39.783a1.54 1.54 0 0 1 1.455-1.6 1.54 1.54 0 0 1 .934 2.825 1.54 1.54 0 0 1-2.389-1.225zm8.008 1.46c-.415.012-.816-.146-1.111-.438s-.457-.691-.449-1.106c-.021-.886.635-1.428 1.559-1.549a1.55 1.55 0 0 1 1.545 1.551 1.49 1.49 0 0 1-1.528 1.546zM3.379 31.512c-1.6-3.994-1.974-8.374-1.075-12.582.462-2.413.526-2.437 3.416-2.057-1.299 3.626-1.49 7.557-.549 11.292 1.39 5.5 5.377 8.993 10.367 9.025 5.218.033 9.447-3.465 10.842-9a23.16 23.16 0 0 0 .622-5.6q.037-11.04.092-22.08h2.328l.088 20.191c-.051 1.382.131 2.762.539 4.083a5.57 5.57 0 0 0 5.425 4.148c2.262.082 4.533.087 6.794 0a4.8 4.8 0 0 0 4.973-4.857c.16-3.707.108-7.424.085-11.136-.005-.956.068-1.483 1.267-1.471 1.115.013 1.335.39 1.329 1.413-.021 3.333-.113 6.68.146 10 .322 4.131 2.564 6.052 6.643 6.1h2.564c1.286-.009 2.571-.018 3.855.03 1.1.04 1.512-.184 1.522-1.418a13.8 13.8 0 0 1 1.489-6.36c1.2-2.546 3.505-4.4 6.249-5.026a2.6 2.6 0 0 0 2.1-1.735c1.496-3.857 5.565-6.063 9.613-5.211a7.33 7.33 0 0 1 6.481 7.355l.04 13.595c.011 1.008-.3 1.258-1.281 1.255q-6.476-.021-12.953-.011c-6.634 0-13.268 0-19.9-.048-3.168-.025-5.517-1.779-7.212-4.587-1.414 3.443-3.974 4.716-7.37 4.63-1.258-.031-2.521-.064-3.775.007-3.523.2-6.529-.781-8.79-3.9-.4 1.286-.7 2.4-1.094 3.471a12.82 12.82 0 0 1-12.185 8.739h-.311a12.66 12.66 0 0 1-12.374-8.255zm67.962-12.411c-3.164 1.885-3.853 5.017-4.165 8.373-.121 1.294.283 1.561 1.5 1.564 4.592.011 4.592.053 4.592-4.527v-4.336c.017-1.135-.092-1.653-.566-1.653-.492.086-.958.284-1.361.579zm9.961-7.478c-2.315.472-3.651 2-4.705 4.171 5.18 1.332 6.719 3.339 6.719 8.587v1.32c0 3.365 0 3.29 3.343 3.317 1.26.009 1.409-.458 1.391-1.525l-.029-10.551a5.22 5.22 0 0 0-5.352-5.459 6.85 6.85 0 0 0-1.37.141zm-5.534 8.169c.119 2.322.105 4.649-.041 6.969-.152 1.845.413 2.336 2.229 2.221 2.734-.173 2.742-.044 2.742-2.785v-.942c0-.879.049-1.763-.011-2.639-.034-1.952-1.417-3.62-3.329-4.015a3.4 3.4 0 0 0-.724-.1c-.593 0-.9.315-.869 1.292zm65.988 12.159c-3.351-.071-5.538-2.01-7.382-4.607-2.636 5.848-11.129 6.59-14.6-.494-1.669 4.121-5 4.8-8.819 4.61-1.2-.061-2.395-.045-3.594-.031l-2.071.012c-4.393-.037-7.13-2.372-7.463-6.8-.277-3.694-.18-7.419-.183-11.13l.1-13.009 2.3.006q.049 10.756.106 21.512a16.42 16.42 0 0 0 .206 2.623c.24 2.429 2.283 4.28 4.724 4.28 2.451.1 4.91.1 7.362.03 3.375-.094 5.321-2.08 5.38-5.5q.091-5.286-.005-10.575c-.017-1.032.218-1.39 1.324-1.409 1.2-.02 1.279.5 1.266 1.457l-.013 9.441c-.061 1.901.566 3.761 1.767 5.236 1.7 2 3.9 2.366 6.331 1.713a4.72 4.72 0 0 0 3.739-4.615c.166-3.832.091-7.675.124-11.513.007-.822-.315-1.683 1.185-1.731 1.593-.05 1.321.844 1.348 1.773.106 3.644-.309 7.3.238 10.931a5.98 5.98 0 0 0 3.736 5.045c4.124 1.622 7.922-.935 7.983-5.374l-.007-12.463c-.01-.971.119-1.468 1.293-1.447 1.116.02 1.334.421 1.318 1.439l-.018 10.575c.027 4.745 2.33 7.039 7.05 7.053 1.951.005 3.9.04 5.853-.029 3.378-.119 5.311-2.109 5.346-5.521q.061-6.042-.011-12.085c-.013-1.017.2-1.411 1.317-1.431 1.181-.023 1.29.483 1.279 1.449l-.034 11.9c-.069 5.435-2.889 8.177-8.325 8.182-.5 0-1-.006-1.5-.013-1.073-.014-2.147-.028-3.217.026-3.343.24-6.541-1.399-8.3-4.252-1.317 3.135-3.575 4.748-6.9 4.748zm14.77-27.887c-.032-.553.237-1.08.703-1.379s1.058-.323 1.547-.064.801.763.814 1.317a1.43 1.43 0 0 1-1.479 1.557h-.118a1.39 1.39 0 0 1-1.468-1.431zm6.581.052c-.052-.416.079-.834.357-1.147s.679-.491 1.098-.488c.415-.042.828.102 1.128.393s.455.699.425 1.116c.042.382-.083.764-.342 1.049s-.627.444-1.012.439q-.1.008-.193.008a1.38 1.38 0 0 1-1.461-1.369z" fill="#7dc356" stroke="transparent"/><path d="M90.24 47.417c-6.018 4.303-12.654 7.666-19.683 9.975C47.662 65 26.416 62.038 7.198 47.031a40.46 40.46 0 0 1-7.2-6.836c1.647.023 2.272 1.239 3.115 1.862a81.47 81.47 0 0 0 23.578 12.5c14.638 4.745 29.284 4.2 43.9-.089a124.31 124.31 0 0 0 18.5-7.28c.228-.09.462-.166.7-.226.437-.124.542.068.449.455z" fill="#2a3390"/></svg>