<svg xmlns="http://www.w3.org/2000/svg" id="Group_9044" width="40.832" height="51.539" data-name="Group 9044" viewBox="0 0 40.832 51.539">
    <defs>
        <style>
            .cls-1{fill:#fff}.cls-2{fill:#d1d1d1}
        </style>
    </defs>
    <path id="Path_8069" d="M853.6 490.315l13.675 13.675v30.075s-1.045 5.838-7.96 5.728-24.315 0-24.315 0-6.819-.485-7.008-7.127.235-35.989.235-35.989-.805-6.289 6.432-6.362 18.941 0 18.941 0z" class="cls-1" data-name="Path 8069" transform="translate(-827.258 -489.364)"/>
    <path id="Path_8070" d="M863.916 491.35v8.488s.682 4.772 3.93 4.789 8.728 0 8.728 0z" class="cls-1" data-name="Path 8070" transform="translate(-837.112 -489.657)"/>
    <path id="Path_8066" d="M28.274.4a1.247 1.247 0 0 0-.9-.4H7.272A6.8 6.8 0 0 0 .5 6.76v38.019a6.8 6.8 0 0 0 6.772 6.76H34.56a6.8 6.8 0 0 0 6.772-6.76V14.59a1.339 1.339 0 0 0-.361-.871zm.361 4l8.5 8.926H31.61a2.965 2.965 0 0 1-2.975-2.963zm5.925 44.649H7.272a4.312 4.312 0 0 1-4.282-4.27V6.76a4.312 4.312 0 0 1 4.282-4.27h18.873v7.868a5.446 5.446 0 0 0 5.465 5.452h7.233v28.969a4.3 4.3 0 0 1-4.283 4.27zm0 0" class="cls-2" data-name="Path 8066" transform="translate(-.5)"/>
    <path id="Path_8067" d="M110.908 401.934H90.417a1.245 1.245 0 1 0 0 2.49h20.5a1.245 1.245 0 1 0-.013-2.49zm0 0" class="cls-2" data-name="Path 8067" transform="translate(-80.246 -361.474)"/>
    <path id="Path_8068" d="M120.558 180.219l5.129-5.515V188.3a1.245 1.245 0 1 0 2.49 0v-13.6l5.129 5.515a1.242 1.242 0 0 0 1.818-1.693l-7.3-7.83a1.236 1.236 0 0 0-1.817 0l-7.3 7.83a1.241 1.241 0 0 0 .062 1.755 1.27 1.27 0 0 0 1.789-.058zm0 0" class="cls-2" data-name="Path 8068" transform="translate(-106.516 -153.155)"/>
</svg>
