<svg xmlns="http://www.w3.org/2000/svg" width="16" height="16" viewBox="0 0 16 16">
    <defs>
        <clipPath id="bkoqfw7qqa">
            <path fill="#fff" stroke="#707070" d="M0 0H16V16H0z" transform="translate(710 467)"/>
        </clipPath>
    </defs>
    <g clip-path="url(#bkoqfw7qqa)" transform="translate(-710 -467)">
        <g>
            <path d="M81.24 14.635l2.153-2.152v8.911a.727.727 0 0 0 1.455 0v-8.911L87 14.635a.727.727 0 0 0 1.029-1.029l-3.394-3.394q-.026-.026-.054-.048l-.025-.018-.032-.024-.031-.019-.03-.018-.032-.015-.032-.015-.031-.012-.036-.013-.032-.008-.037-.009-.037-.006h-.21l-.037.006-.036.009-.033.008-.035.012-.033.012-.031.014-.033.016-.029.017-.032.02-.03.022-.027.02c-.018.014-.035.03-.051.046l-3.394 3.394a.727.727 0 0 0 1.028 1.029z" transform="translate(710 457.969) translate(-76.12)"/>
            <path d="M15.273 160a.727.727 0 0 0-.727.727v5.573H1.455v-5.576a.727.727 0 0 0-1.455 0v6.3a.727.727 0 0 0 .727.727h14.546a.727.727 0 0 0 .727-.721v-6.3a.727.727 0 0 0-.727-.73z" transform="translate(710 457.969) translate(0 -142.727)"/>
        </g>
    </g>
</svg>
